<svg width="16" height="16" viewBox="0 0 16 16" fill="none" xmlns="http://www.w3.org/2000/svg">
<path d="M8.35371 3.68687C8.54897 3.4916 8.54897 3.17502 8.35371 2.97976C8.15845 2.7845 7.84186 2.7845 7.6466 2.97976L2.97994 7.64643C2.96913 7.65724 2.95887 7.6685 2.94916 7.68015C2.87695 7.76684 2.8335 7.87834 2.8335 7.99998C2.8335 7.99999 2.8335 7.99998 2.8335 7.99998C2.8335 8.13932 2.89049 8.26537 2.98244 8.35604L7.6466 13.0202C7.84187 13.2154 8.15845 13.2154 8.35371 13.0202C8.54897 12.8249 8.54897 12.5083 8.35371 12.313L4.54063 8.5H12.6668C12.9429 8.5 13.1668 8.27614 13.1668 8C13.1668 7.72386 12.9429 7.5 12.6668 7.5H4.54058L8.35371 3.68687Z" fill="#666F71"/>
</svg>
