<svg width="16" height="16" viewBox="0 0 16 16" fill="none" xmlns="http://www.w3.org/2000/svg">
<path fill-rule="evenodd" clip-rule="evenodd" d="M8 2.75C6.60761 2.75 5.27226 3.30312 4.28769 4.28769C3.30312 5.27226 2.75 6.60761 2.75 8V12C2.75 12.4142 2.41421 12.75 2 12.75C1.58579 12.75 1.25 12.4142 1.25 12V8C1.25 6.20979 1.96116 4.4929 3.22703 3.22703C4.4929 1.96116 6.20979 1.25 8 1.25C9.79021 1.25 11.5071 1.96116 12.773 3.22703C14.0388 4.4929 14.75 6.20979 14.75 8V12C14.75 12.4142 14.4142 12.75 14 12.75C13.5858 12.75 13.25 12.4142 13.25 12V8C13.25 6.60761 12.6969 5.27226 11.7123 4.28769C10.7277 3.30312 9.39239 2.75 8 2.75Z" fill="#374B50"/>
<path fill-rule="evenodd" clip-rule="evenodd" d="M1.25 9.33334C1.25 8.91913 1.58579 8.58334 2 8.58334H4C4.55253 8.58334 5.08244 8.80284 5.47314 9.19354C5.86384 9.58424 6.08333 10.1141 6.08333 10.6667V12.6667C6.08333 13.2192 5.86384 13.7491 5.47314 14.1398C5.08244 14.5305 4.55253 14.75 4 14.75H3.33333C2.7808 14.75 2.25089 14.5305 1.86019 14.1398C1.46949 13.7491 1.25 13.2192 1.25 12.6667V9.33334ZM2.75 10.0833V12.6667C2.75 12.8214 2.81146 12.9698 2.92085 13.0792C3.03025 13.1886 3.17862 13.25 3.33333 13.25H4C4.15471 13.25 4.30308 13.1886 4.41248 13.0792C4.52188 12.9698 4.58333 12.8214 4.58333 12.6667V10.6667C4.58333 10.512 4.52188 10.3636 4.41248 10.2542C4.30308 10.1448 4.15471 10.0833 4 10.0833H2.75ZM12 10.0833C11.8453 10.0833 11.6969 10.1448 11.5875 10.2542C11.4781 10.3636 11.4167 10.512 11.4167 10.6667V12.6667C11.4167 12.8214 11.4781 12.9698 11.5875 13.0792C11.6969 13.1886 11.8453 13.25 12 13.25H12.6667C12.8214 13.25 12.9697 13.1886 13.0791 13.0792C13.1885 12.9698 13.25 12.8214 13.25 12.6667V10.0833H12ZM10.5269 9.19354C10.9176 8.80284 11.4475 8.58334 12 8.58334H14C14.4142 8.58334 14.75 8.91913 14.75 9.33334V12.6667C14.75 13.2192 14.5305 13.7491 14.1398 14.1398C13.7491 14.5305 13.2192 14.75 12.6667 14.75H12C11.4475 14.75 10.9176 14.5305 10.5269 14.1398C10.1362 13.7491 9.91667 13.2192 9.91667 12.6667V10.6667C9.91667 10.1141 10.1362 9.58424 10.5269 9.19354Z" fill="#374B50"/>
</svg>
