<svg width="16" height="16" viewBox="0 0 16 16" fill="none" xmlns="http://www.w3.org/2000/svg">
<path fill-rule="evenodd" clip-rule="evenodd" d="M0.5 2.3999C0.5 2.12376 0.723858 1.8999 1 1.8999H4.63999C5.42033 1.8999 6.16608 2.21796 6.7139 2.77983C6.84585 2.91516 6.96373 3.06196 7.06667 3.21789C7.1696 3.06196 7.28749 2.91516 7.41943 2.77983C7.96726 2.21796 8.713 1.8999 9.49334 1.8999H9.8C10.0761 1.8999 10.3 2.12376 10.3 2.3999C10.3 2.67604 10.0761 2.8999 9.8 2.8999H9.49334C8.9865 2.8999 8.49778 3.10629 8.13543 3.47793C7.77265 3.85001 7.56665 4.35729 7.56665 4.88879V11.6536C7.95094 11.3824 8.41053 11.2332 8.88668 11.2332H12.6333V9.46657C12.6333 9.19043 12.8572 8.96657 13.1333 8.96657C13.4095 8.96657 13.6333 9.19043 13.6333 9.46657V11.7332C13.6333 12.0094 13.4095 12.2332 13.1333 12.2332H8.88668C8.54074 12.2332 8.20632 12.3741 7.95775 12.629C7.70873 12.8844 7.56665 13.2334 7.56665 13.5999C7.56665 13.876 7.3428 14.0999 7.06665 14.0999C6.79051 14.0999 6.56665 13.876 6.56665 13.5999C6.56665 13.2334 6.42459 12.8844 6.17559 12.629C5.92701 12.3741 5.5926 12.2332 5.24666 12.2332H1C0.723858 12.2332 0.5 12.0094 0.5 11.7332V2.3999ZM6.56665 11.6536C6.18237 11.3824 5.72279 11.2332 5.24666 11.2332H1.5V2.8999H4.63999C5.14683 2.8999 5.63555 3.10629 5.9979 3.47793C6.36067 3.85 6.56665 4.35728 6.56665 4.88879V11.6536Z" fill="#3E4749"/>
<path fill-rule="evenodd" clip-rule="evenodd" d="M10.7667 4.2666C10.7667 3.99046 10.9905 3.7666 11.2667 3.7666H15C15.2761 3.7666 15.5 3.99046 15.5 4.2666C15.5 4.54274 15.2761 4.7666 15 4.7666H11.2667C10.9905 4.7666 10.7667 4.54274 10.7667 4.2666Z" fill="#3E4749"/>
<path fill-rule="evenodd" clip-rule="evenodd" d="M13.1333 1.8999C13.4094 1.8999 13.6333 2.12376 13.6333 2.3999L13.6333 6.13324C13.6333 6.40938 13.4094 6.63324 13.1333 6.63324C12.8572 6.63324 12.6333 6.40938 12.6333 6.13324L12.6333 2.3999C12.6333 2.12376 12.8572 1.8999 13.1333 1.8999Z" fill="#3E4749"/>
</svg>
