<svg width="16" height="16" viewBox="0 0 16 16" fill="none" xmlns="http://www.w3.org/2000/svg">
<path fill-rule="evenodd" clip-rule="evenodd" d="M0.774198 1C0.34662 1 0 1.33341 0 1.74469V12.1702C0 12.5815 0.34662 12.9149 0.774198 12.9149H5.83222C6.20181 12.9149 6.55626 13.0561 6.8176 13.3075C7.07893 13.5589 7.22575 13.8998 7.22575 14.2553C7.22575 14.6666 7.57237 15 7.99995 15C7.99998 15 7.99992 15 7.99995 15C8.00326 15 8.00666 15 8.00996 14.9999C8.02662 14.9997 8.04316 14.999 8.05956 14.9978C8.45933 14.9686 8.77425 14.6473 8.77425 14.2553C8.77425 13.8998 8.92107 13.5589 9.1824 13.3075C9.44374 13.0561 9.79819 12.9149 10.1678 12.9149H15.2258C15.6534 12.9149 16 12.5815 16 12.1702V1.74469C16 1.33341 15.6534 1 15.2258 1H10.8904C9.91847 1 8.98639 1.37136 8.29916 2.0324C8.19201 2.13546 8.09219 2.24425 8 2.35802C7.90782 2.24425 7.80799 2.13546 7.70084 2.0324C7.01361 1.37136 6.08153 1 5.10965 1H0.774198ZM7.22575 4.52483V11.7631C6.8012 11.5435 6.32304 11.4255 5.83222 11.4255H1.5484V2.48938H5.10965C5.67087 2.48938 6.20911 2.70383 6.60596 3.08555C7.0028 3.46727 7.22575 3.98499 7.22575 4.52483ZM10.1678 11.4255C9.67696 11.4255 9.1988 11.5435 8.77425 11.7631V4.52483C8.77425 3.98499 8.9972 3.46727 9.39404 3.08555C9.79089 2.70383 10.3291 2.48938 10.8904 2.48938H14.4516V11.4255H10.1678Z" fill="#1E2526"/>
</svg>
