<svg width="16" height="16" viewBox="0 0 16 16" fill="none" xmlns="http://www.w3.org/2000/svg">
<path d="M11.0404 6.33219C11.2239 6.1258 11.2053 5.80976 10.9989 5.6263C10.7925 5.44284 10.4765 5.46143 10.293 5.66782L7.11116 9.24741L5.70708 7.66782C5.52362 7.46143 5.20759 7.44284 5.0012 7.6263C4.79481 7.80976 4.77622 8.1258 4.95967 8.33219L6.73745 10.3322C6.83234 10.4389 6.96834 10.5 7.11116 10.5C7.25398 10.5 7.38998 10.4389 7.48486 10.3322L11.0404 6.33219Z" fill="#657376"/>
<path fill-rule="evenodd" clip-rule="evenodd" d="M8.00004 0.833328C4.042 0.833328 0.833374 4.04195 0.833374 8C0.833374 11.958 4.042 15.1667 8.00004 15.1667C11.9581 15.1667 15.1667 11.958 15.1667 8C15.1667 4.04195 11.9581 0.833328 8.00004 0.833328ZM1.83337 8C1.83337 4.59424 4.59428 1.83333 8.00004 1.83333C11.4058 1.83333 14.1667 4.59424 14.1667 8C14.1667 11.4058 11.4058 14.1667 8.00004 14.1667C4.59428 14.1667 1.83337 11.4058 1.83337 8Z" fill="#657376"/>
</svg>
