<svg width="16" height="16" viewBox="0 0 16 16" fill="none" xmlns="http://www.w3.org/2000/svg">
<path fill-rule="evenodd" clip-rule="evenodd" d="M8 0.666667C3.94991 0.666667 0.666667 3.94991 0.666667 8C0.666667 12.0501 3.94991 15.3333 8 15.3333C12.0501 15.3333 15.3333 12.0501 15.3333 8C15.3333 3.94991 12.0501 0.666667 8 0.666667ZM0 8C0 3.58172 3.58172 0 8 0C12.4183 0 16 3.58172 16 8C16 12.4183 12.4183 16 8 16C3.58172 16 0 12.4183 0 8ZM12.1978 4.39832C12.346 4.50753 12.3776 4.7162 12.2684 4.86441L7.60177 11.1977C7.54796 11.2708 7.46673 11.3187 7.3768 11.3305C7.28687 11.3423 7.19601 11.317 7.12518 11.2603L3.79185 8.59363C3.6481 8.47863 3.62479 8.26887 3.73979 8.12511C3.8548 7.98136 4.06456 7.95805 4.20831 8.07305L7.27081 10.5231L11.7317 4.46894C11.8409 4.32074 12.0496 4.28912 12.1978 4.39832Z" fill="#31B8DA"/>
</svg>
