<svg width="16" height="16" viewBox="0 0 16 16" fill="none" xmlns="http://www.w3.org/2000/svg">
<g clip-path="url(#clip0)">
<path fill-rule="evenodd" clip-rule="evenodd" d="M2 0C0.895431 0 0 0.895431 0 2V14C0 15.1046 0.895431 16 2 16H14C15.1046 16 16 15.1046 16 14V2C16 0.895431 15.1046 0 14 0H2ZM11.0906 5.52344C11.2296 5.52344 11.3523 5.57252 11.4587 5.67067C11.565 5.77701 11.6182 5.89971 11.6182 6.03876C11.6182 6.17782 11.565 6.30051 11.4587 6.40685L7.42896 10.4488C7.3717 10.4979 7.31649 10.5347 7.26332 10.5592C7.21015 10.5838 7.14267 10.5961 7.06087 10.5961C6.97907 10.5961 6.91159 10.5838 6.85842 10.5592C6.80525 10.5347 6.75004 10.4979 6.69278 10.4488L4.66829 8.41206C4.56196 8.30572 4.50879 8.18303 4.50879 8.04397C4.50879 7.90491 4.56196 7.78222 4.66829 7.67588C4.77463 7.57772 4.89733 7.52865 5.03638 7.52865C5.17544 7.52865 5.29813 7.57772 5.40447 7.67588L7.06087 9.34455L10.7225 5.67067C10.8288 5.57252 10.9515 5.52344 11.0906 5.52344Z" fill="#374B50"/>
</g>
<defs>
<clipPath id="clip0">
<rect width="16" height="16" fill="white"/>
</clipPath>
</defs>
</svg>
