<svg width="16" height="16" viewBox="0 0 16 16" fill="none" xmlns="http://www.w3.org/2000/svg">
<path fill-rule="evenodd" clip-rule="evenodd" d="M0.833374 8C0.833374 4.04195 4.042 0.833328 8.00004 0.833328C11.9581 0.833328 15.1667 4.04195 15.1667 8C15.1667 11.958 11.9581 15.1667 8.00004 15.1667C4.042 15.1667 0.833374 11.958 0.833374 8ZM10.9989 5.6263C11.2053 5.80976 11.2239 6.1258 11.0404 6.33219L7.48486 10.3322C7.38998 10.4389 7.25398 10.5 7.11116 10.5C6.96834 10.5 6.83234 10.4389 6.73745 10.3322L4.95967 8.33219C4.77622 8.1258 4.79481 7.80976 5.0012 7.6263C5.20759 7.44284 5.52362 7.46143 5.70708 7.66782L7.11116 9.24741L10.293 5.66782C10.4765 5.46143 10.7925 5.44284 10.9989 5.6263Z" fill="#657376"/>
</svg>
