<svg width="16" height="16" viewBox="0 0 16 16" fill="none" xmlns="http://www.w3.org/2000/svg">
<path fill-rule="evenodd" clip-rule="evenodd" d="M10.5098 2.36339C9.29515 1.82217 7.93806 1.68809 6.64096 1.98115C5.34386 2.27421 4.17625 2.97871 3.31225 3.98959C2.44826 5.00046 1.93418 6.26354 1.84668 7.59045C1.75918 8.91737 2.10296 10.237 2.82674 11.3526C3.55052 12.4682 4.61552 13.3199 5.8629 13.7807C7.11029 14.2416 8.47323 14.2868 9.74845 13.9098C11.0237 13.5328 12.1428 12.7536 12.9391 11.6885C13.7353 10.6234 14.1659 9.32952 14.1667 7.99973V7.38668C14.1667 7.11054 14.3905 6.88668 14.6667 6.88668C14.9428 6.88668 15.1667 7.11054 15.1667 7.38668V8.00001C15.1658 9.54545 14.6653 11.0495 13.74 12.2873C12.8147 13.5251 11.514 14.4306 10.032 14.8688C8.54997 15.3069 6.96602 15.2543 5.51635 14.7188C4.06668 14.1832 2.82898 13.1933 1.98783 11.8969C1.14669 10.6004 0.747163 9.06674 0.848848 7.52466C0.950533 5.98257 1.54798 4.51466 2.55208 3.33987C3.55618 2.16507 4.91314 1.34632 6.42058 1.00574C7.92802 0.665149 9.50517 0.820972 10.9168 1.44996C11.1691 1.56235 11.2824 1.85794 11.17 2.11018C11.0576 2.36241 10.7621 2.47578 10.5098 2.36339Z" fill="#666F71"/>
<path fill-rule="evenodd" clip-rule="evenodd" d="M15.02 2.31293C15.2154 2.50809 15.2156 2.82467 15.0204 3.02003L8.35373 9.69337C8.25998 9.78721 8.13278 9.83996 8.00012 9.83999C7.86747 9.84002 7.74025 9.78734 7.64645 9.69354L5.64645 7.69354C5.45118 7.49828 5.45118 7.1817 5.64645 6.98644C5.84171 6.79117 6.15829 6.79117 6.35355 6.98644L7.99982 8.63271L14.3129 2.31328C14.5081 2.11792 14.8247 2.11776 15.02 2.31293Z" fill="#666F71"/>
</svg>
