<svg width="16" height="16" viewBox="0 0 16 16" fill="none" xmlns="http://www.w3.org/2000/svg">
    <path d="M15.2476 0C15.0553 0 14.8811 0.0686677 14.7347 0.201566L9.92742 4.93831V2.24091C9.92742 2.02687 9.85538 1.83488 9.70316 1.69145C9.55596 1.55277 9.3727 1.49257 9.17499 1.49257C8.97728 1.49257 8.79402 1.55277 8.64683 1.69145C8.4946 1.83488 8.42257 2.02687 8.42257 2.24091V6.71863C8.42257 6.76105 8.42524 6.80557 8.42991 6.85147C8.43907 6.94153 8.47539 7.01943 8.53066 7.07957C8.56695 7.14651 8.61327 7.20603 8.66674 7.25859C8.72063 7.31158 8.77931 7.35779 8.8432 7.39323C8.91089 7.44516 8.98705 7.46591 9.05394 7.47189C9.09958 7.47597 9.14111 7.47863 9.17499 7.47863H13.7294C13.9271 7.47863 14.1104 7.41843 14.2576 7.27975C14.4127 7.1336 14.4819 6.93584 14.4819 6.71863C14.4819 6.50459 14.4098 6.3126 14.2576 6.16917C14.1104 6.03049 13.9271 5.97029 13.7294 5.97029H11.0055L15.7677 1.2883C15.9132 1.14522 16 0.962373 16 0.748336C16 0.534299 15.9133 0.351301 15.7678 0.208225L15.7605 0.201567C15.614 0.0686684 15.4398 0 15.2476 0Z" fill="#374B50"/>
    <path d="M2.27057 8.52138C2.07286 8.52138 1.8896 8.58157 1.74241 8.72025C1.58729 8.8664 1.51815 9.06417 1.51815 9.28137C1.51815 9.49541 1.59018 9.6874 1.74241 9.83083C1.8896 9.96952 2.07286 10.0297 2.27057 10.0297H4.99452L0.232311 14.7117C0.0867839 14.8548 0 15.0376 0 15.2517C0 15.4657 0.0866546 15.6487 0.232182 15.7918L0.239519 15.7984C0.385959 15.9313 0.560188 16 0.752426 16C0.944664 16 1.11902 15.9315 1.26546 15.7986L6.07258 11.0617V13.7591C6.07258 13.9731 6.14462 14.1651 6.29684 14.3086C6.44404 14.4472 6.6273 14.5074 6.82501 14.5074C7.02272 14.5074 7.20598 14.4472 7.35318 14.3086C7.5054 14.1651 7.57744 13.9731 7.57744 13.7591V9.28137C7.57744 9.23895 7.57476 9.19443 7.57009 9.14853C7.56093 9.05847 7.52461 8.98057 7.46934 8.92044C7.43305 8.85349 7.38673 8.79397 7.33326 8.74141C7.27937 8.68842 7.22069 8.64221 7.1568 8.60677C7.08911 8.55484 7.01295 8.53409 6.94607 8.52811C6.90042 8.52403 6.8589 8.52138 6.82501 8.52138H2.27057Z" fill="#374B50"/>
</svg>
