<svg width="16" height="16" viewBox="0 0 16 16" fill="none" xmlns="http://www.w3.org/2000/svg">
<path fill-rule="evenodd" clip-rule="evenodd" d="M7.99996 2.00008C4.68625 2.00008 1.99996 4.68637 1.99996 8.00008C1.99996 11.3138 4.68625 14.0001 7.99996 14.0001C11.3137 14.0001 14 11.3138 14 8.00008C14 4.68637 11.3137 2.00008 7.99996 2.00008ZM0.666626 8.00008C0.666626 3.94999 3.94987 0.666748 7.99996 0.666748C12.05 0.666748 15.3333 3.94999 15.3333 8.00008C15.3333 12.0502 12.05 15.3334 7.99996 15.3334C3.94987 15.3334 0.666626 12.0502 0.666626 8.00008Z" fill="#A6C8D0"/>
<path fill-rule="evenodd" clip-rule="evenodd" d="M11.2979 4.70187C11.4764 4.88043 11.5388 5.14454 11.4589 5.3841L10.0456 9.62409C9.97925 9.82316 9.82304 9.97937 9.62397 10.0457L5.38397 11.4591C5.14442 11.5389 4.8803 11.4766 4.70175 11.298C4.5232 11.1195 4.46085 10.8553 4.5407 10.6158L5.95403 6.37579C6.02039 6.17672 6.1766 6.02051 6.37567 5.95415L10.6157 4.54082C10.8552 4.46097 11.1193 4.52332 11.2979 4.70187ZM7.11353 7.11366L6.22725 9.77252L8.88611 8.88623L9.77239 6.22737L7.11353 7.11366Z" fill="#A6C8D0"/>
</svg>
