<svg width="16" height="16" viewBox="0 0 16 16" fill="none" xmlns="http://www.w3.org/2000/svg">
<path fill-rule="evenodd" clip-rule="evenodd" d="M2.9347 0.830385C4.18763 0.428501 5.88937 0.1875 7.74805 0.1875C9.60674 0.1875 11.3085 0.428501 12.5614 0.830386C13.1855 1.03056 13.7236 1.27864 14.1151 1.57554C14.5014 1.86852 14.8086 2.26082 14.8086 2.74632C14.8086 3.23182 14.5014 3.62413 14.1151 3.91711C13.7236 4.21401 13.1855 4.46209 12.5614 4.66226C11.3085 5.06415 9.60674 5.30515 7.74805 5.30515C5.88937 5.30515 4.18763 5.06415 2.9347 4.66226C2.31063 4.46209 1.77252 4.21401 1.38102 3.91711C0.994679 3.62413 0.6875 3.23183 0.6875 2.74632C0.6875 2.26082 0.994679 1.86851 1.38102 1.57554C1.77252 1.27864 2.31063 1.03056 2.9347 0.830385ZM1.94859 2.26855C1.66676 2.48227 1.60445 2.64706 1.60445 2.74632C1.60445 2.84559 1.66676 3.01038 1.94859 3.2241C2.22525 3.43391 2.65399 3.64214 3.22466 3.82519C4.36121 4.18974 5.9605 4.42279 7.74805 4.42279C9.53561 4.42279 11.1349 4.18974 12.2714 3.82519C12.8421 3.64214 13.2709 3.43391 13.5475 3.2241C13.8293 3.01038 13.8916 2.84559 13.8916 2.74632C13.8916 2.64705 13.8293 2.48227 13.5475 2.26855C13.2709 2.05874 12.8421 1.8505 12.2714 1.66746C11.1349 1.3029 9.53561 1.06985 7.74805 1.06985C5.9605 1.06985 4.36121 1.3029 3.22466 1.66746C2.65399 1.8505 2.22525 2.05874 1.94859 2.26855Z" fill="#1A778F"/>
<path fill-rule="evenodd" clip-rule="evenodd" d="M1.14598 7.24632C1.39919 7.24632 1.60445 7.44385 1.60445 7.6875C1.60445 7.7888 1.66718 7.95395 1.94651 8.16694C2.22126 8.37645 2.64766 8.58444 3.21676 8.76726C4.35023 9.13139 5.94933 9.36397 7.74805 9.36397C9.54676 9.36397 11.1459 9.13139 12.2793 8.76726C12.8484 8.58444 13.2748 8.37645 13.5496 8.16694C13.8289 7.95395 13.8916 7.7888 13.8916 7.6875C13.8916 7.44385 14.0969 7.24632 14.3501 7.24632C14.6033 7.24632 14.8086 7.44385 14.8086 7.6875C14.8086 8.17208 14.5045 8.56458 14.1191 8.8585C13.729 9.15591 13.1926 9.40409 12.5697 9.60421C11.3191 10.006 9.61715 10.2463 7.74805 10.2463C5.87894 10.2463 4.17701 10.006 2.9264 9.60421C2.30346 9.40409 1.76706 9.15591 1.37702 8.8585C0.99156 8.56458 0.6875 8.17208 0.6875 7.6875C0.6875 7.44385 0.892767 7.24632 1.14598 7.24632Z" fill="#1A778F"/>
<path fill-rule="evenodd" clip-rule="evenodd" d="M1.14598 2.30515C1.39919 2.30515 1.60445 2.50267 1.60445 2.74632V12.6287C1.60445 12.73 1.66718 12.8951 1.94651 13.1081C2.22126 13.3176 2.64766 13.5256 3.21676 13.7084C4.35023 14.0726 5.94933 14.3051 7.74805 14.3051C9.54676 14.3051 11.1459 14.0726 12.2793 13.7084C12.8484 13.5256 13.2748 13.3176 13.5496 13.1081C13.8289 12.8951 13.8916 12.73 13.8916 12.6287V2.74632C13.8916 2.50267 14.0969 2.30515 14.3501 2.30515C14.6033 2.30515 14.8086 2.50267 14.8086 2.74632V12.6287C14.8086 13.1133 14.5045 13.5058 14.1191 13.7997C13.729 14.0971 13.1926 14.3453 12.5697 14.5454C11.3191 14.9471 9.61715 15.1875 7.74805 15.1875C5.87894 15.1875 4.17701 14.9471 2.9264 14.5454C2.30346 14.3453 1.76706 14.0971 1.37702 13.7997C0.99156 13.5058 0.6875 13.1133 0.6875 12.6287V2.74632C0.6875 2.50267 0.892767 2.30515 1.14598 2.30515Z" fill="#1A778F"/>
</svg>
