<svg width="16" height="16" viewBox="0 0 16 16" fill="none" xmlns="http://www.w3.org/2000/svg">
<path d="M12.1775 8.56338C12.2138 8.52582 12.2472 8.48513 12.2775 8.44131C12.3077 8.3975 12.3229 8.35681 12.3229 8.31925C12.3714 8.28169 12.3986 8.22848 12.4047 8.15962C12.4107 8.09077 12.4138 8.03756 12.4138 8C12.4138 7.96244 12.4107 7.90923 12.4047 7.84038C12.3986 7.77152 12.3714 7.71831 12.3229 7.68075C12.2865 7.64319 12.2623 7.6025 12.2502 7.55869C12.2381 7.51487 12.2138 7.47418 12.1775 7.43662L9.06951 4.22535C8.91199 4.07512 8.73023 4 8.52425 4C8.31826 4 8.13651 4.07512 7.97898 4.22535C7.83358 4.38811 7.76088 4.5759 7.76088 4.78873C7.76088 5.00157 7.83358 5.18936 7.97898 5.35211L9.77835 7.19249L0.781541 7.19249C0.539201 7.19249 0.348362 7.2676 0.209017 7.41784C0.0696717 7.56808 1.85243e-07 7.76213 1.74846e-07 8C1.64448e-07 8.23787 0.0696716 8.43192 0.209017 8.58216C0.348362 8.7324 0.539201 8.80751 0.781541 8.80751L9.77835 8.80751L7.97898 10.6479C7.83358 10.8106 7.76088 10.9984 7.76088 11.2113C7.76088 11.4241 7.83358 11.6119 7.97898 11.7746C8.13651 11.9249 8.31826 12 8.52425 12C8.73023 12 8.91199 11.9249 9.06951 11.7746L12.1775 8.56338Z" fill="#6B868C"/>
<path fill-rule="evenodd" clip-rule="evenodd" d="M15.2 -3.49691e-08C15.6418 -1.56562e-08 16 0.358172 16 0.8L16 15.2C16 15.6418 15.6418 16 15.2 16C14.7582 16 14.4 15.6418 14.4 15.2L14.4 0.8C14.4 0.358172 14.7582 -5.4282e-08 15.2 -3.49691e-08Z" fill="#6B868C"/>
</svg>
