<svg width="16" height="16" viewBox="0 0 16 16" fill="none" xmlns="http://www.w3.org/2000/svg">
<path d="M3.82251 7.43662C3.78616 7.47418 3.75283 7.51487 3.72254 7.55869C3.69225 7.6025 3.6771 7.64319 3.6771 7.68075C3.62864 7.71831 3.60137 7.77152 3.59531 7.84038C3.58926 7.90923 3.58623 7.96244 3.58623 8C3.58623 8.03756 3.58926 8.09077 3.59531 8.15962C3.60137 8.22848 3.62864 8.28169 3.6771 8.31925C3.71346 8.35681 3.73769 8.3975 3.74981 8.44131C3.76192 8.48513 3.78616 8.52582 3.82251 8.56338L6.93049 11.7746C7.08801 11.9249 7.26977 12 7.47575 12C7.68174 12 7.86349 11.9249 8.02102 11.7746C8.16642 11.6119 8.23912 11.4241 8.23912 11.2113C8.23912 10.9984 8.16642 10.8106 8.02102 10.6479L6.22165 8.80751L15.2185 8.80751C15.4608 8.80751 15.6516 8.7324 15.791 8.58216C15.9303 8.43192 16 8.23787 16 8C16 7.76213 15.9303 7.56808 15.791 7.41784C15.6516 7.2676 15.4608 7.19249 15.2185 7.19249L6.22165 7.19249L8.02102 5.35211C8.16642 5.18936 8.23912 5.00157 8.23912 4.78873C8.23912 4.5759 8.16642 4.38811 8.02102 4.22535C7.86349 4.07512 7.68174 4 7.47575 4C7.26977 4 7.08801 4.07512 6.93049 4.22535L3.82251 7.43662Z" fill="#6B868C"/>
<path fill-rule="evenodd" clip-rule="evenodd" d="M0.8 16C0.358172 16 4.27116e-09 15.6418 9.53991e-09 15.2L1.81258e-07 0.799999C1.86527e-07 0.358171 0.358172 4.27116e-09 0.8 9.5399e-09C1.24183 1.48086e-08 1.6 0.358171 1.6 0.799999L1.6 15.2C1.6 15.6418 1.24183 16 0.8 16Z" fill="#6B868C"/>
</svg>
