<svg width="16" height="16" viewBox="0 0 16 16" fill="none" xmlns="http://www.w3.org/2000/svg">
    <path d="M9.68782 7.27705C9.54138 7.40995 9.36714 7.47862 9.1749 7.47862C8.98266 7.47862 8.80843 7.40995 8.66199 7.27705L8.65465 7.2704C8.50913 7.12732 8.42247 6.94432 8.42247 6.73028C8.42247 6.51625 8.50926 6.3334 8.65478 6.19032L13.4171 1.50833L10.6931 1.50833C10.4954 1.50833 10.3121 1.44814 10.1649 1.30945C10.0127 1.16603 9.94063 0.974038 9.94063 0.759996C9.94063 0.542787 10.0098 0.345021 10.1649 0.198878C10.3121 0.0601927 10.4954 0 10.6931 0H15.2476C15.2815 0 15.323 0.00265429 15.3686 0.00673415C15.4355 0.0127119 15.5117 0.0334627 15.5794 0.0853922C15.6432 0.120834 15.7019 0.167049 15.7558 0.220036C15.8093 0.272599 15.8556 0.332118 15.8919 0.39906C15.9472 0.459191 15.9835 0.537094 15.9927 0.627159C15.9973 0.673052 16 0.717575 16 0.759997L16 5.23771C16 5.45175 15.928 5.64374 15.7757 5.78717C15.6285 5.92586 15.4453 5.98605 15.2476 5.98605C15.0499 5.98605 14.8666 5.92586 14.7194 5.78717C14.5672 5.64374 14.4951 5.45175 14.4951 5.23771V2.54031L9.68782 7.27705Z" fill="#374B50"/>
    <path d="M5.8351 15.8011C5.68791 15.9398 5.50464 16 5.30693 16L0.752436 16C0.718547 16 0.677021 15.9973 0.631377 15.9933C0.564495 15.9873 0.488328 15.9665 0.420639 15.9146C0.356751 15.8792 0.29807 15.833 0.244175 15.78C0.19071 15.7274 0.144386 15.6679 0.1081 15.6009C0.0528249 15.5408 0.0165063 15.4629 0.00734487 15.3728C0.00267655 15.3269 0 15.2824 0 15.24V10.7623C0 10.5482 0.072034 10.3563 0.224264 10.2128C0.371461 10.0741 0.554724 10.014 0.752436 10.014C0.950148 10.014 1.13341 10.0741 1.28061 10.2128C1.43284 10.3563 1.50487 10.5482 1.50487 10.7623L1.50487 13.4597L6.31205 8.72278C6.45849 8.58988 6.63285 8.52138 6.8251 8.52138C7.01734 8.52138 7.19157 8.59005 7.33801 8.72295L7.34535 8.72961C7.49088 8.87268 7.57753 9.05568 7.57753 9.26972C7.57753 9.48375 7.49075 9.6666 7.34522 9.80968L2.58295 14.4917H5.30693C5.50464 14.4917 5.68791 14.5519 5.8351 14.6905C5.98733 14.834 6.05937 15.026 6.05937 15.24C6.05937 15.4572 5.99022 15.655 5.8351 15.8011Z" fill="#374B50"/>
</svg>
