<svg width="16" height="16" viewBox="0 0 16 16" fill="none" xmlns="http://www.w3.org/2000/svg">
<path fill-rule="evenodd" clip-rule="evenodd" d="M8.00016 1.83337C4.59441 1.83337 1.8335 4.59428 1.8335 8.00004C1.8335 11.4058 4.59441 14.1667 8.00016 14.1667C11.4059 14.1667 14.1668 11.4058 14.1668 8.00004C14.1668 4.59428 11.4059 1.83337 8.00016 1.83337ZM0.833496 8.00004C0.833496 4.042 4.04212 0.833374 8.00016 0.833374C11.9582 0.833374 15.1668 4.042 15.1668 8.00004C15.1668 11.9581 11.9582 15.1667 8.00016 15.1667C4.04212 15.1667 0.833496 11.9581 0.833496 8.00004Z" fill="#666F71"/>
<path fill-rule="evenodd" clip-rule="evenodd" d="M11.1802 4.8198C11.3142 4.95372 11.3609 5.1518 11.301 5.33147L9.8877 9.57147C9.83793 9.72077 9.72077 9.83793 9.57147 9.88769L5.33147 11.301C5.1518 11.3609 4.95372 11.3142 4.8198 11.1802C4.68588 11.0463 4.63912 10.8482 4.69901 10.6686L6.11235 6.42857C6.16211 6.27927 6.27927 6.16211 6.42857 6.11234L10.6686 4.69901C10.8482 4.63912 11.0463 4.68588 11.1802 4.8198ZM6.98197 6.98197L5.96392 10.0361L9.01807 9.01807L10.0361 5.96392L6.98197 6.98197Z" fill="#666F71"/>
</svg>
