<svg width="16" height="16" viewBox="0 0 16 16" fill="none" xmlns="http://www.w3.org/2000/svg">
<path d="M11.6334 8.53163H15.9982V7.58531H14.356V3.99327C14.356 3.39731 13.9662 3 13.3699 3V3.93548H11.6515V4.8818H12.4581C12.9131 4.8818 13.2466 4.65425 13.3699 4.29487V7.58531H11.6334V8.53163ZM9.11023 7.6431H7.98097C7.42087 7.6431 6.98403 7.19884 6.98403 6.66066V5.81006C6.98403 5.27189 7.42087 4.82762 7.98097 4.82762H9.11023C9.67939 4.82762 10.1162 5.27189 10.1162 5.81006V6.66066C10.1162 7.19703 9.67939 7.6431 9.11023 7.6431ZM5.9599 6.23265C5.9599 7.66116 7.00397 8.62554 8.44681 8.62554H8.6462C10.089 8.62554 11.1422 7.66116 11.1422 6.23265C11.1422 4.80414 10.0872 3.84157 8.64439 3.84157H8.445C7.00397 3.84157 5.9599 4.80595 5.9599 6.23265ZM3.54911 11.2911H1.81262C1.34678 11.2911 1.01507 11.0076 1.01507 10.6193V10.5435C1.01507 10.1461 1.34678 9.85358 1.81262 9.85358H3.54911C4.01495 9.85358 4.35573 10.1461 4.35573 10.5435V10.6193C4.35573 11.0076 4.01495 11.2911 3.54911 11.2911ZM3.22646 7.30177H2.11533C1.57517 7.30177 1.13833 6.89544 1.13833 6.36629V5.77936C1.13833 5.24118 1.57517 4.82401 2.11533 4.82401H3.22646C3.76663 4.82401 4.20347 5.23938 4.20347 5.77936V6.35546C4.20347 6.89544 3.76663 7.30177 3.22646 7.30177ZM5.37986 10.5543C5.37986 9.52309 4.6675 8.9181 3.1884 8.9181H1.32865C1.10026 8.9181 0.958876 8.77543 0.958876 8.59664C0.958876 8.40702 1.10207 8.26615 1.32865 8.26615H2.73343C4.18534 8.26615 5.22941 7.34873 5.22941 6.00691V3.91742C4.82157 3.91742 4.46992 4.17206 4.31766 4.52242C3.93882 4.09621 3.35879 3.84157 2.61924 3.84157H2.46698C1.15826 3.84157 0.114195 4.7301 0.114195 6.04483C0.114195 6.71665 0.389713 7.22592 0.844681 7.56725C0.360711 7.70811 0.0181262 8.09639 0.0181262 8.59664C0.0181262 9.06077 0.302708 9.42918 0.730486 9.58991C0.275518 9.84455 0 10.2419 0 10.7818C0 11.6902 0.891809 12.2754 2.63736 12.2754H2.74249C4.48805 12.2754 5.37986 11.6613 5.37986 10.5543Z" fill="#114954"/>
</svg>
