<svg width="69" height="40" viewBox="0 0 69 40" fill="none" xmlns="http://www.w3.org/2000/svg">
<path d="M50.169 23.8551H68.9922V19.7741H61.91V4.28349C61.91 1.7134 60.2294 0 57.6576 0V4.03427H50.2472V8.11527H53.7257C55.6878 8.11527 57.1261 7.13396 57.6576 5.58411V19.7741H50.169V23.8551ZM39.2879 20.0234H34.4179C32.0025 20.0234 30.1186 18.1075 30.1186 15.7866V12.1184C30.1186 9.79751 32.0025 7.88162 34.4179 7.88162H39.2879C41.7424 7.88162 43.6263 9.79751 43.6263 12.1184V15.7866C43.6263 18.0997 41.7424 20.0234 39.2879 20.0234ZM25.702 13.9408C25.702 20.1012 30.2046 24.2601 36.4269 24.2601H37.2867C43.509 24.2601 48.0506 20.1012 48.0506 13.9408C48.0506 7.78037 43.5012 3.62928 37.2789 3.62928H36.4191C30.2046 3.62928 25.702 7.78816 25.702 13.9408ZM15.3055 35.7555H7.81692C5.80798 35.7555 4.37748 34.5327 4.37748 32.8583V32.5312C4.37748 30.8178 5.80798 29.5561 7.81692 29.5561H15.3055C17.3145 29.5561 18.7841 30.8178 18.7841 32.5312V32.8583C18.7841 34.5327 17.3145 35.7555 15.3055 35.7555ZM13.9141 18.5514H9.12235C6.79291 18.5514 4.90903 16.7991 4.90903 14.5171V11.986C4.90903 9.66511 6.79291 7.86604 9.12235 7.86604H13.9141C16.2436 7.86604 18.1274 9.65732 18.1274 11.986V14.4704C18.1274 16.7991 16.2436 18.5514 13.9141 18.5514ZM23.2006 32.5779C23.2006 28.1308 20.1286 25.5218 13.75 25.5218H5.72981C4.74487 25.5218 4.13515 24.9065 4.13515 24.1355C4.13515 23.3178 4.75269 22.7103 5.72981 22.7103H11.7879C18.0493 22.7103 22.5518 18.7539 22.5518 12.9673V3.95639C20.793 3.95639 19.2765 5.05452 18.6199 6.56542C16.9862 4.72741 14.4848 3.62928 11.2955 3.62928H10.6388C4.99502 3.62928 0.492466 7.46106 0.492466 13.1308C0.492466 16.028 1.68064 18.2243 3.64269 19.6963C1.55557 20.3037 0.0781692 21.9782 0.0781692 24.1355C0.0781692 26.1371 1.30543 27.7259 3.15022 28.419C1.18817 29.5171 0 31.2305 0 33.5592C0 37.4766 3.84593 40 11.3736 40H11.827C19.3547 40 23.2006 37.352 23.2006 32.5779Z" fill="#114954"/>
</svg>
