<svg width="16" height="16" viewBox="0 0 16 16" fill="none" xmlns="http://www.w3.org/2000/svg">
<path fill-rule="evenodd" clip-rule="evenodd" d="M0.5 1C0.5 0.723858 0.723858 0.5 1 0.5H6.44444C6.72059 0.5 6.94444 0.723858 6.94444 1V6.44444C6.94444 6.72059 6.72059 6.94444 6.44444 6.94444H1C0.723858 6.94444 0.5 6.72059 0.5 6.44444V1ZM1.5 1.5V5.94444H5.94444V1.5H1.5Z" fill="#3E4749"/>
<path fill-rule="evenodd" clip-rule="evenodd" d="M9.05566 1C9.05566 0.723858 9.27952 0.5 9.55566 0.5H15.0001C15.2763 0.5 15.5001 0.723858 15.5001 1V6.44444C15.5001 6.72059 15.2763 6.94444 15.0001 6.94444H9.55566C9.27952 6.94444 9.05566 6.72059 9.05566 6.44444V1ZM10.0557 1.5V5.94444H14.5001V1.5H10.0557Z" fill="#3E4749"/>
<path fill-rule="evenodd" clip-rule="evenodd" d="M9.05566 9.55566C9.05566 9.27952 9.27952 9.05566 9.55566 9.05566H15.0001C15.2763 9.05566 15.5001 9.27952 15.5001 9.55566V15.0001C15.5001 15.2763 15.2763 15.5001 15.0001 15.5001H9.55566C9.27952 15.5001 9.05566 15.2763 9.05566 15.0001V9.55566ZM10.0557 10.0557V14.5001H14.5001V10.0557H10.0557Z" fill="#3E4749"/>
<path fill-rule="evenodd" clip-rule="evenodd" d="M0.5 9.55566C0.5 9.27952 0.723858 9.05566 1 9.05566H6.44444C6.72059 9.05566 6.94444 9.27952 6.94444 9.55566V15.0001C6.94444 15.2763 6.72059 15.5001 6.44444 15.5001H1C0.723858 15.5001 0.5 15.2763 0.5 15.0001V9.55566ZM1.5 10.0557V14.5001H5.94444V10.0557H1.5Z" fill="#3E4749"/>
</svg>
