<svg width="16" height="16" viewBox="0 0 16 16" fill="none" xmlns="http://www.w3.org/2000/svg">
<path d="M9.70503 1.81614C10.2107 1.60662 10.7527 1.49878 11.3 1.49878C11.8473 1.49878 12.3893 1.60662 12.895 1.81614C13.4006 2.02565 13.86 2.33274 14.247 2.71986C14.634 3.10676 14.941 3.56612 15.1505 4.0717C15.36 4.57735 15.4679 5.11932 15.4679 5.66666C15.4679 6.214 15.36 6.75598 15.1505 7.26163C14.941 7.76724 14.634 8.22663 14.2469 8.61355L8.35355 14.5069C8.15829 14.7021 7.84171 14.7021 7.64645 14.5069L1.75311 8.61355C0.971548 7.83199 0.532471 6.77196 0.532471 5.66666C0.532471 4.56137 0.971548 3.50134 1.75311 2.71978C2.53467 1.93821 3.5947 1.49914 4.7 1.49914C5.8053 1.49914 6.86532 1.93821 7.64689 2.71978L8 3.07289L8.35303 2.71986C8.73995 2.33278 9.19942 2.02564 9.70503 1.81614Z" fill="#657376"/>
</svg>
