<svg viewBox="0 0 16 16" fill="none" xmlns="http://www.w3.org/2000/svg">
<path d="m14.6435 1.5035c-0.4140 -0.4826 -0.8907 -0.8538 -1.4300 -1.1137c-0.5393 -0.2599 -1.1086 -0.3898 -1.7079 -0.3898c-0.5884 0.0000 -1.1658 0.1299 -1.7324 0.3898c-0.5666 0.2599 -1.0568 0.6311 -1.4709 1.1137l-0.2778 0.3155l-0.2778 -0.3155c-0.4140 -0.4826 -0.8961 -0.8538 -1.4464 -1.1137c-0.5502 -0.2599 -1.1358 -0.3898 -1.7569 -0.3898c-0.5992 0.0000 -1.1685 0.1299 -1.7079 0.3898c-0.5393 0.2599 -1.0160 0.6311 -1.4300 1.1137c-0.4249 0.4702 -0.7654 1.0271 -1.0214 1.6705c-0.2560 0.6435 -0.3841 1.2993 -0.3841 1.9675s0.1171 1.3241 0.3514 1.9675c0.2343 0.6435 0.5584 1.2003 0.9724 1.6705l6.1450 6.9791c0.0654 0.0742 0.1362 0.1330 0.2125 0.1763c0.0763 0.0433 0.1689 0.0650 0.2778 0.0650c0.0981 0.0000 0.1852 -0.0217 0.2615 -0.0650c0.0763 -0.0433 0.1525 -0.1021 0.2288 -0.1763l6.1287 -6.9791c0.4685 -0.4950 0.8226 -1.0580 1.0623 -1.6891s0.3596 -1.2807 0.3596 -1.9490s-0.1090 -1.3179 -0.3269 -1.9490c-0.2288 -0.6311 -0.5720 -1.1941 -1.0296 -1.6891zm-0.9643 6.1810l-5.6548 6.4037l-5.6548 -6.4037c-0.6210 -0.7177 -0.9316 -1.5654 -0.9316 -2.5429s0.3105 -1.8252 0.9316 -2.5429c0.2833 -0.3465 0.6183 -0.6033 1.0051 -0.7703c0.3868 -0.1671 0.7763 -0.2506 1.1685 -0.2506c0.4140 0.0000 0.8090 0.0835 1.1849 0.2506c0.3759 0.1671 0.7218 0.4238 1.0378 0.7703l0.7681 0.8724c0.1416 0.1609 0.3051 0.2413 0.4903 0.2413c0.1852 0.0000 0.3487 -0.0804 0.4903 -0.2413l0.7028 -0.8724c0.3051 -0.3094 0.6510 -0.5569 1.0378 -0.7425c0.3868 -0.1856 0.8035 -0.2784 1.2503 -0.2784c0.4249 0.0000 0.8253 0.0928 1.2012 0.2784c0.3759 0.1856 0.7218 0.4331 1.0378 0.7425c0.2724 0.3588 0.4903 0.7548 0.6537 1.1879c0.1634 0.4331 0.2452 0.8848 0.2452 1.3550s-0.0844 0.9219 -0.2533 1.3550s-0.4059 0.8291 -0.7109 1.1879z" fill="#F6941D"/>
</svg>