<svg width="16" height="16" viewBox="0 0 16 16" fill="none" xmlns="http://www.w3.org/2000/svg">
<path fill-rule="evenodd" clip-rule="evenodd" d="M9.70503 1.81614C10.2107 1.60662 10.7527 1.49878 11.3 1.49878C11.8473 1.49878 12.3893 1.60662 12.895 1.81614C13.4006 2.02565 13.86 2.33274 14.247 2.71986C14.634 3.10676 14.941 3.56612 15.1505 4.0717C15.36 4.57735 15.4679 5.11932 15.4679 5.66666C15.4679 6.214 15.36 6.75598 15.1505 7.26163C14.941 7.76724 14.634 8.22663 14.2469 8.61355C14.2469 8.61358 14.2469 8.61352 14.2469 8.61355L8.35355 14.5069C8.15829 14.7021 7.84171 14.7021 7.64645 14.5069L1.75311 8.61355C0.971548 7.83199 0.532471 6.77196 0.532471 5.66666C0.532471 4.56137 0.971548 3.50134 1.75311 2.71978C2.53467 1.93821 3.5947 1.49914 4.7 1.49914C5.8053 1.49914 6.86532 1.93821 7.64689 2.71978L8 3.07289L8.35303 2.71986C8.35306 2.71983 8.353 2.71989 8.35303 2.71986C8.73995 2.33278 9.19942 2.02564 9.70503 1.81614ZM13.5397 3.4268C13.2456 3.13259 12.8965 2.8992 12.5122 2.73997C12.1279 2.58074 11.716 2.49878 11.3 2.49878C10.884 2.49878 10.4721 2.58074 10.0878 2.73997C9.70353 2.8992 9.35437 3.13259 9.0603 3.4268L8.35355 4.13355C8.15829 4.32881 7.84171 4.32881 7.64645 4.13355L6.93978 3.42688C6.34575 2.83286 5.54008 2.49914 4.7 2.49914C3.85992 2.49914 3.05424 2.83286 2.46022 3.42688C1.86619 4.02091 1.53247 4.82658 1.53247 5.66666C1.53247 6.50674 1.86619 7.31242 2.46022 7.90644L8 13.4462L13.5398 7.90644C13.834 7.61237 14.0675 7.26313 14.2267 6.87884C14.3859 6.49454 14.4679 6.08264 14.4679 5.66666C14.4679 5.25069 14.3859 4.83878 14.2267 4.45449C14.0675 4.07019 13.8339 3.72087 13.5397 3.4268Z" fill="#657376"/>
</svg>
