<svg width="16" height="16" viewBox="0 0 16 16" fill="none" xmlns="http://www.w3.org/2000/svg">
<path fill-rule="evenodd" clip-rule="evenodd" d="M8.00002 2C4.68631 2 2.00002 4.68629 2.00002 8C2.00002 11.3137 4.68631 14 8.00002 14C11.3137 14 14 11.3137 14 8C14 4.68629 11.3137 2 8.00002 2ZM0.666687 8C0.666687 3.94991 3.94993 0.666668 8.00002 0.666668C12.0501 0.666668 15.3334 3.94991 15.3334 8C15.3334 12.0501 12.0501 15.3333 8.00002 15.3333C3.94993 15.3333 0.666687 12.0501 0.666687 8Z" fill="#A6C8D0"/>
<path fill-rule="evenodd" clip-rule="evenodd" d="M8.17199 5.34954C7.86165 5.29631 7.54247 5.35463 7.27101 5.51417C6.99954 5.67372 6.7933 5.92419 6.6888 6.22122C6.56662 6.56855 6.18601 6.75107 5.83869 6.62888C5.49136 6.5067 5.30884 6.12609 5.43103 5.77877C5.64001 5.18469 6.05249 4.68375 6.59543 4.36466C7.13836 4.04557 7.77671 3.92893 8.3974 4.0354C9.0181 4.14186 9.58108 4.46457 9.98665 4.94635C10.3922 5.42807 10.6141 6.03775 10.6132 6.66742C10.6129 7.68757 9.85651 8.36127 9.31638 8.72136C9.02596 8.91498 8.74028 9.05734 8.52984 9.15087C8.42367 9.19805 8.33427 9.23386 8.26985 9.2584C8.23758 9.27069 8.21142 9.28022 8.19238 9.28699L8.16923 9.2951L8.16185 9.29762L8.15926 9.29849L8.15823 9.29884C8.15804 9.2989 8.1574 9.29912 7.95146 8.68129L8.15823 9.29884C7.80894 9.41527 7.43056 9.22677 7.31413 8.87748C7.19785 8.52865 7.38596 8.15165 7.73436 8.03467C7.73455 8.03461 7.73417 8.03474 7.73436 8.03467C7.73456 8.03461 7.735 8.03446 7.73541 8.03432L7.7457 8.0307C7.75596 8.02706 7.77277 8.02096 7.79519 8.01242C7.84014 7.99529 7.90699 7.9686 7.98832 7.93245C8.15288 7.85932 8.3672 7.75168 8.57678 7.61196C9.03651 7.30547 9.27991 6.97942 9.27991 6.66666C9.28038 6.35178 9.1694 6.0459 8.96662 5.80501C8.76383 5.56412 8.48234 5.40277 8.17199 5.34954ZM7.73541 8.03432C7.73545 8.0343 7.73537 8.03433 7.73541 8.03432V8.03432Z" fill="#A6C8D0"/>
<circle cx="8" cy="11.25" r="0.75" fill="#A6C8D0"/>
</svg>