<svg width="16" height="16" viewBox="0 0 16 16" fill="none" xmlns="http://www.w3.org/2000/svg">
<path fill-rule="evenodd" clip-rule="evenodd" d="M8 0C6.88557 0 5.84506 0.210151 4.87846 0.630458C3.90049 1.03941 3.05047 1.60738 2.32836 2.3344C1.60625 3.06142 1.03483 3.9077 0.614072 4.87327C0.204689 5.8502 0 6.88959 0 7.99148C0 9.10473 0.204689 10.1441 0.614072 11.1097C1.03483 12.0866 1.60625 12.9357 2.32836 13.6571C3.05047 14.3784 3.90049 14.9492 4.87846 15.3695C5.84506 15.7899 6.88557 16 8 16C9.11443 16 10.1549 15.7899 11.1215 15.3695C12.0995 14.9492 12.9495 14.3784 13.6716 13.6571C14.3937 12.9357 14.9652 12.0866 15.3859 11.1097C15.7953 10.1441 16 9.10473 16 7.99148C16 6.88959 15.7953 5.8502 15.3859 4.87327C14.9652 3.9077 14.3937 3.06142 13.6716 2.3344C12.9495 1.60738 12.0995 1.03941 11.1215 0.630458C10.1549 0.210151 9.11443 0 8 0ZM8.73347 3.62939V7.70181L10.6951 9.66134C10.8429 9.80902 10.9168 9.97941 10.9168 10.1725C10.9168 10.3656 10.8429 10.536 10.6951 10.6837C10.6155 10.7632 10.5274 10.82 10.4307 10.8541C10.334 10.8882 10.2516 10.9052 10.1834 10.9052C10.1151 10.9052 10.0327 10.8882 9.93603 10.8541C9.83937 10.82 9.75124 10.7632 9.67164 10.6837L7.48827 8.50266C7.42004 8.4345 7.36603 8.36067 7.32623 8.28115C7.28642 8.20163 7.26652 8.10508 7.26652 7.99148V3.62939C7.26652 3.41356 7.33475 3.24033 7.47121 3.10969C7.60768 2.97906 7.78394 2.91374 8 2.91374C8.21606 2.91374 8.39232 2.97906 8.52878 3.10969C8.66525 3.24033 8.73347 3.41356 8.73347 3.62939Z" fill="#F6941D"/>
</svg>
