<svg width="16" height="16" viewBox="0 0 80 80" fill="none" xmlns="http://www.w3.org/2000/svg">
<path fill-rule="evenodd" clip-rule="evenodd" d="M40 0C34.4278 0 29.2253 1.05075 24.3923 3.15229C19.5025 5.19703 15.2523 8.0369 11.6418 11.672C8.03125 15.3071 5.17414 19.5385 3.07036 24.3663C1.02344 29.251 0 34.448 0 39.9574C0 45.5236 1.02344 50.7206 3.07036 55.5485C5.17414 60.4331 8.03125 64.6787 11.6418 68.2854C15.2523 71.8921 19.5025 74.7462 24.3923 76.8477C29.2253 78.9492 34.4278 80 40 80C45.5722 80 50.7747 78.9492 55.6077 76.8477C60.4975 74.7462 64.7477 71.8921 68.3582 68.2854C71.9687 64.6787 74.8259 60.4331 76.9296 55.5485C78.9766 50.7206 80 45.5236 80 39.9574C80 34.448 78.9766 29.251 76.9296 24.3663C74.8259 19.5385 71.9687 15.3071 68.3582 11.672C64.7477 8.0369 60.4975 5.19703 55.6077 3.15229C50.7747 1.05075 45.5722 0 40 0ZM43.6674 18.147V38.5091L53.4755 48.3067C54.2146 49.0451 54.5842 49.8971 54.5842 50.8626C54.5842 51.8282 54.2146 52.6802 53.4755 53.4185C53.0775 53.8161 52.6368 54.1001 52.1535 54.2705C51.6702 54.4409 51.258 54.5261 50.9168 54.5261C50.5757 54.5261 50.1635 54.4409 49.6802 54.2705C49.1969 54.1001 48.7562 53.8161 48.3582 53.4185L37.4414 42.5133C37.1002 42.1725 36.8301 41.8033 36.6311 41.4058C36.4321 41.0082 36.3326 40.5254 36.3326 39.9574V18.147C36.3326 17.0678 36.6738 16.2016 37.3561 15.5485C38.0384 14.8953 38.9197 14.5687 40 14.5687C41.0803 14.5687 41.9616 14.8953 42.6439 15.5485C43.3262 16.2016 43.6674 17.0678 43.6674 18.147Z" fill="#F6941D"/>
</svg>
