<svg width="16" height="16" viewBox="0 0 16 16" fill="none" xmlns="http://www.w3.org/2000/svg">
  <path
    fill-rule="evenodd"
    clip-rule="evenodd"
    d="M15.8356 0.316487C15.9724 0.5575 15.9034 0.873294 15.6814 1.02183L14.6791 1.69259L16.5229 3.69454C16.7072 3.89473 16.7072 4.2193 16.5229 4.41949L13.8791 7.29013C13.6947 7.49032 13.3958 7.49032 13.2114 7.29013L11.2792 5.19206L8.82725 7.85441C9.11311 8.23108 9.34743 8.6517 9.52219 9.10337C9.75853 9.7142 9.88125 10.3698 9.88329 11.0323C9.88534 11.6948 9.76666 12.3513 9.5341 12.9638C9.30154 13.5763 8.95969 14.1329 8.52822 14.6014C8.09676 15.0699 7.58421 15.441 7.02009 15.6936C6.45596 15.9461 5.85141 16.0749 5.24123 16.0727C4.63105 16.0705 4.02731 15.9373 3.46475 15.6806C2.9022 15.424 2.39195 15.0491 1.96339 14.5775L1.95985 14.5736C1.11708 13.6261 0.650766 12.3571 0.661308 11.0399C0.671849 9.72277 1.15842 8.46278 2.01623 7.53136C2.87404 6.59994 4.03444 6.07161 5.24752 6.06016C6.30459 6.05019 7.32883 6.4328 8.15235 7.13733L13.5891 1.23399C13.6151 1.2058 13.644 1.18099 13.6753 1.16007L15.186 0.149048C15.408 0.000509489 15.6988 0.0754744 15.8356 0.316487ZM7.84487 8.20489C7.15078 7.47798 6.22071 7.07625 5.25572 7.08536C4.29021 7.09447 3.36662 7.51497 2.68388 8.25631C2.00114 8.99764 1.61386 10.0005 1.60547 11.0489C1.59709 12.0963 1.9676 13.1055 2.63727 13.8594C2.97801 14.2338 3.38349 14.5315 3.83046 14.7354C4.27821 14.9397 4.75874 15.0457 5.24439 15.0475C5.73005 15.0493 6.21122 14.9467 6.66022 14.7457C7.10922 14.5447 7.51716 14.2493 7.86057 13.8764C8.20398 13.5035 8.47607 13.0606 8.66117 12.5731C8.84627 12.0855 8.94072 11.5631 8.9391 11.0357C8.93747 10.5084 8.83979 9.98664 8.65169 9.50047C8.46391 9.01514 8.18972 8.57486 7.84487 8.20489ZM11.9468 4.46711L13.5453 6.20271L15.5214 4.05702L13.9229 2.32141L11.9468 4.46711Z"
    fill="#374B50"
    stroke="#374B50"
    stroke-width="0.5"
  />
</svg>