<svg width="16" height="16" viewBox="0 0 16 16" fill="none" xmlns="http://www.w3.org/2000/svg">
<path fill-rule="evenodd" clip-rule="evenodd" d="M4.16667 11.8333C3.85725 11.8333 3.5605 11.9562 3.34171 12.175C3.12292 12.3938 3 12.6906 3 13C3 13.2761 2.77614 13.5 2.5 13.5C2.22386 13.5 2 13.2761 2 13C2 12.4254 2.22827 11.8743 2.6346 11.4679C3.04093 11.0616 3.59203 10.8333 4.16667 10.8333H13.1667C13.4428 10.8333 13.6667 11.0572 13.6667 11.3333C13.6667 11.6095 13.4428 11.8333 13.1667 11.8333H4.16667Z" fill="#3E4749"/>
<path fill-rule="evenodd" clip-rule="evenodd" d="M4.16667 1.83333C3.85725 1.83333 3.5605 1.95625 3.34171 2.17504C3.12292 2.39383 3 2.69058 3 3V13C3 13.3094 3.12292 13.6062 3.34171 13.825C3.5605 14.0437 3.85725 14.1667 4.16667 14.1667H12.6667V5.99983C12.6667 5.72369 12.8905 5.49983 13.1667 5.49983C13.4428 5.49983 13.6667 5.72369 13.6667 5.99983V14.6667C13.6667 14.9428 13.4428 15.1667 13.1667 15.1667H4.16667C3.59203 15.1667 3.04093 14.9384 2.6346 14.5321C2.22827 14.1257 2 13.5746 2 13V3C2 2.42536 2.22827 1.87426 2.6346 1.46793C3.04093 1.0616 3.59203 0.833331 4.16667 0.833331H8.66667C8.94281 0.833331 9.16667 1.05719 9.16667 1.33333C9.16667 1.60947 8.94281 1.83333 8.66667 1.83333H4.16667Z" fill="#3E4749"/>
<path fill-rule="evenodd" clip-rule="evenodd" d="M10.5 2.12826C10.5 1.94416 10.6492 1.79492 10.8333 1.79492H14.4231C14.6072 1.79492 14.7564 1.94416 14.7564 2.12826C14.7564 2.31235 14.6072 2.46159 14.4231 2.46159H10.8333C10.6492 2.46159 10.5 2.31235 10.5 2.12826Z" fill="#3E4749"/>
<path fill-rule="evenodd" clip-rule="evenodd" d="M12.6282 0C12.8123 0 12.9615 0.149238 12.9615 0.333333V3.92308C12.9615 4.10717 12.8123 4.25641 12.6282 4.25641C12.4441 4.25641 12.2949 4.10717 12.2949 3.92308V0.333333C12.2949 0.149238 12.4441 0 12.6282 0Z" fill="#3E4749"/>
</svg>
