<svg width="16" height="16" viewBox="0 0 16 16" fill="none" xmlns="http://www.w3.org/2000/svg">
<path d="M13.1218 6.54313H12.3891V4.36209C12.3891 3.76003 12.2755 3.19773 12.0483 2.67519C11.8211 2.14128 11.5088 1.67554 11.1112 1.27796C10.7136 0.880367 10.2478 0.567981 9.71393 0.340788C9.19139 0.113595 8.62909 0 8.02703 0C7.42497 0 6.86267 0.113595 6.34013 0.340788C5.80622 0.567981 5.34049 0.880367 4.9429 1.27796C4.54531 1.67554 4.23292 2.14128 4.00573 2.67519C3.77854 3.19773 3.66494 3.76003 3.66494 4.36209V6.54313H2.93225C2.31883 6.54313 1.80197 6.75328 1.38166 7.17359C0.961354 7.5939 0.751204 8.11075 0.751204 8.72417V13.819C0.751204 14.4324 0.961354 14.9492 1.38166 15.3695C1.80197 15.7898 2.31883 16 2.93225 16H13.1218C13.7352 16 14.2521 15.7898 14.6724 15.3695C15.0927 14.9492 15.3029 14.4324 15.3029 13.819V8.72417C15.3029 8.11075 15.0927 7.5939 14.6724 7.17359C14.2521 6.75328 13.7352 6.54313 13.1218 6.54313ZM5.11329 4.36209C5.11329 3.56691 5.40012 2.8825 5.97378 2.30884C6.54744 1.73518 7.23185 1.44835 8.02703 1.44835C8.82221 1.44835 9.50662 1.73518 10.0803 2.30884C10.6539 2.8825 10.9408 3.56691 10.9408 4.36209V6.54313H5.11329V4.36209ZM13.8375 13.819C13.8375 14.0348 13.7722 14.208 13.6415 14.3387C13.5109 14.4693 13.3376 14.5346 13.1218 14.5346H2.93225C2.71641 14.5346 2.54318 14.4693 2.41255 14.3387C2.28191 14.208 2.21659 14.0348 2.21659 13.819V8.72417C2.21659 8.50834 2.28191 8.33227 2.41255 8.19595C2.54318 8.05964 2.71641 7.99148 2.93225 7.99148H13.1218C13.3376 7.99148 13.5109 8.05964 13.6415 8.19595C13.7722 8.33227 13.8375 8.50834 13.8375 8.72417V13.819Z" fill="white"/>
</svg>
