<svg width="16" height="16" viewBox="0 0 16 16" fill="none" xmlns="http://www.w3.org/2000/svg">
<path fill-rule="evenodd" clip-rule="evenodd" d="M2.94922 0.679908C3.04422 0.565912 3.18494 0.5 3.33333 0.5H12.6667C12.8151 0.5 12.9558 0.565912 13.0508 0.679908L15.3841 3.47991C15.459 3.56977 15.5 3.68303 15.5 3.8V13.6C15.5 14.1219 15.2692 14.6103 14.8789 14.9616C14.4903 15.3113 13.9736 15.5 13.4444 15.5H2.55556C2.0264 15.5 1.50968 15.3113 1.12113 14.9616C0.730838 14.6103 0.5 14.1219 0.5 13.6V3.8C0.5 3.68303 0.541008 3.56977 0.615889 3.47991L2.94922 0.679908ZM3.56752 1.5L1.5 3.98102V13.6C1.5 13.8207 1.59694 14.0445 1.79009 14.2183C1.98499 14.3937 2.2596 14.5 2.55556 14.5H13.4444C13.7404 14.5 14.015 14.3937 14.2099 14.2183C14.4031 14.0445 14.5 13.8207 14.5 13.6V3.98102L12.4325 1.5H3.56752Z" fill="#3E4749"/>
<path fill-rule="evenodd" clip-rule="evenodd" d="M0.5 3.80005C0.5 3.52391 0.723858 3.30005 1 3.30005H15C15.2761 3.30005 15.5 3.52391 15.5 3.80005C15.5 4.07619 15.2761 4.30005 15 4.30005H1C0.723858 4.30005 0.5 4.07619 0.5 3.80005Z" fill="#3E4749"/>
<path fill-rule="evenodd" clip-rule="evenodd" d="M4.88892 6.1001C5.16506 6.1001 5.38892 6.32396 5.38892 6.6001C5.38892 7.19208 5.64974 7.77196 6.13462 8.20835C6.62124 8.6463 7.29151 8.9001 8.00003 8.9001C8.70855 8.9001 9.37882 8.6463 9.86543 8.20835C10.3503 7.77196 10.6111 7.19208 10.6111 6.6001C10.6111 6.32396 10.835 6.1001 11.1111 6.1001C11.3873 6.1001 11.6111 6.32396 11.6111 6.6001C11.6111 7.49333 11.2164 8.33783 10.5344 8.95164C9.85412 9.56389 8.94174 9.9001 8.00003 9.9001C7.05831 9.9001 6.14593 9.56389 5.46566 8.95164C4.78364 8.33783 4.38892 7.49333 4.38892 6.6001C4.38892 6.32396 4.61277 6.1001 4.88892 6.1001Z" fill="#3E4749"/>
</svg>
