<svg width="17" height="16" viewBox="0 0 17 16" fill="none" xmlns="http://www.w3.org/2000/svg">
<g clip-path="url(#clip0)">
<path fill-rule="evenodd" clip-rule="evenodd" d="M2.96442 1C3.4946 1 3.9244 1.44771 3.9244 1.99999V6.6666C3.9244 7.21888 3.4946 7.66659 2.96442 7.66659C2.43423 7.66659 2.00444 7.21888 2.00444 6.6666V1.99999C2.00444 1.44771 2.43423 1 2.96442 1ZM2.00439 10.3334V14C2.00439 14.5523 2.43419 15 2.96438 15C3.49456 15 3.92436 14.5523 3.92436 14V10.3334H4.88438C5.41456 10.3334 5.84436 9.8857 5.84436 9.33342C5.84436 8.78114 5.41456 8.33343 4.88438 8.33343H2.96438H1.04445C0.514271 8.33343 0.0844727 8.78114 0.0844727 9.33342C0.0844727 9.8857 0.514271 10.3334 1.04445 10.3334H2.00439ZM9.04447 7.99979C9.04447 7.44751 8.61468 6.9998 8.08449 6.9998C7.55431 6.9998 7.12451 7.44751 7.12451 7.99979V13.9997C7.12451 14.552 7.55431 14.9997 8.08449 14.9997C8.61468 14.9997 9.04447 14.552 9.04447 13.9997V7.99979ZM8.08447 1C8.61466 1 9.04445 1.44771 9.04445 1.99999V4.33356H10.0045C10.5347 4.33356 10.9645 4.78127 10.9645 5.33355C10.9645 5.88583 10.5347 6.33354 10.0045 6.33354H6.16457C5.63439 6.33354 5.20459 5.88583 5.20459 5.33355C5.20459 4.78127 5.63439 4.33356 6.16457 4.33356H7.12449V1.99999C7.12449 1.44771 7.55429 1 8.08447 1ZM12.2446 11.6665H11.2847C10.7545 11.6665 10.3247 11.2188 10.3247 10.6665C10.3247 10.1143 10.7545 9.66655 11.2847 9.66655H13.2046H15.1246C15.6548 9.66655 16.0846 10.1143 16.0846 10.6665C16.0846 11.2188 15.6548 11.6665 15.1246 11.6665H14.1646V13.9998C14.1646 14.5521 13.7348 14.9998 13.2046 14.9998C12.6744 14.9998 12.2446 14.5521 12.2446 13.9998V11.6665ZM13.2045 1C13.7347 1 14.1645 1.44771 14.1645 1.99999V7.99992C14.1645 8.5522 13.7347 8.99991 13.2045 8.99991C12.6743 8.99991 12.2445 8.5522 12.2445 7.99992V1.99999C12.2445 1.44771 12.6743 1 13.2045 1Z" fill="#6B868C"/>
</g>
<defs>
<clipPath id="clip0">
<path d="M0.0844727 0H16.0845V16H0.0844727V0Z" fill="white"/>
</clipPath>
</defs>
</svg>
