<svg width="16" height="16" viewBox="0 0 16 16" fill="none" xmlns="http://www.w3.org/2000/svg">
<path fill-rule="evenodd" clip-rule="evenodd" d="M4.66683 2.08334C4.34466 2.08334 4.0835 2.34451 4.0835 2.66668V13.3333C4.0835 13.6555 4.34466 13.9167 4.66683 13.9167H11.3335C11.6557 13.9167 11.9168 13.6555 11.9168 13.3333V2.66668C11.9168 2.34451 11.6557 2.08334 11.3335 2.08334H4.66683ZM2.5835 2.66668C2.5835 1.51608 3.51624 0.583344 4.66683 0.583344H11.3335C12.4841 0.583344 13.4168 1.51608 13.4168 2.66668V13.3333C13.4168 14.4839 12.4841 15.4167 11.3335 15.4167H4.66683C3.51624 15.4167 2.5835 14.4839 2.5835 13.3333V2.66668Z" fill="#374B50"/>
<path fill-rule="evenodd" clip-rule="evenodd" d="M7.25 12C7.25 11.5858 7.58579 11.25 8 11.25H8.00667C8.42088 11.25 8.75667 11.5858 8.75667 12C8.75667 12.4142 8.42088 12.75 8.00667 12.75H8C7.58579 12.75 7.25 12.4142 7.25 12Z" fill="#374B50"/>
</svg>
