<svg width="16" height="16" viewBox="0 0 16 16" fill="none" xmlns="http://www.w3.org/2000/svg">
<path fill-rule="evenodd" clip-rule="evenodd" d="M1 2.4375C1 2.19588 1.19588 2 1.4375 2H14.5625C14.8041 2 15 2.19588 15 2.4375V5.9375C15 6.17912 14.8041 6.375 14.5625 6.375H1.4375C1.19588 6.375 1 6.17912 1 5.9375V2.4375ZM1.875 2.875V5.5H14.125V2.875H1.875Z" fill="#374B50"/>
<path fill-rule="evenodd" clip-rule="evenodd" d="M1 9.4375C1 9.19588 1.19588 9 1.4375 9H14.5625C14.8041 9 15 9.19588 15 9.4375C15 9.67912 14.8041 9.875 14.5625 9.875H1.4375C1.19588 9.875 1 9.67912 1 9.4375Z" fill="#374B50"/>
<path fill-rule="evenodd" clip-rule="evenodd" d="M1 12.9375C1 12.6959 1.19588 12.5 1.4375 12.5H14.5625C14.8041 12.5 15 12.6959 15 12.9375C15 13.1791 14.8041 13.375 14.5625 13.375H1.4375C1.19588 13.375 1 13.1791 1 12.9375Z" fill="#374B50"/>
</svg>
