<svg width="16" height="14" viewBox="0 0 16 14" fill="none" xmlns="http://www.w3.org/2000/svg">
<path fill-rule="evenodd" clip-rule="evenodd" d="M9.11536 10.2539C9.11536 9.97776 9.33921 9.75391 9.61536 9.75391H15C15.2761 9.75391 15.5 9.97776 15.5 10.2539C15.5 10.53 15.2761 10.7539 15 10.7539H9.61536C9.33921 10.7539 9.11536 10.53 9.11536 10.2539Z" fill="#6B868C"/>
<path fill-rule="evenodd" clip-rule="evenodd" d="M0.5 8.50391C0.5 8.22776 0.723858 8.00391 1 8.00391H7.46154C7.73768 8.00391 7.96154 8.22776 7.96154 8.50391C7.96154 8.78005 7.73768 9.00391 7.46154 9.00391H1C0.723858 9.00391 0.5 8.78005 0.5 8.50391Z" fill="#6B868C"/>
<path fill-rule="evenodd" clip-rule="evenodd" d="M0.5 12.2725C0.5 11.9963 0.723858 11.7725 1 11.7725H7.46154C7.73768 11.7725 7.96154 11.9963 7.96154 12.2725C7.96154 12.5486 7.73768 12.7725 7.46154 12.7725H1C0.723858 12.7725 0.5 12.5486 0.5 12.2725Z" fill="#6B868C"/>
<path fill-rule="evenodd" clip-rule="evenodd" d="M12.3077 7.06152C12.5838 7.06152 12.8077 7.28538 12.8077 7.56152L12.8077 12.9461C12.8077 13.2223 12.5838 13.4461 12.3077 13.4461C12.0315 13.4461 11.8077 13.2223 11.8077 12.9461L11.8077 7.56152C11.8077 7.28538 12.0315 7.06152 12.3077 7.06152Z" fill="#6B868C"/>
<path fill-rule="evenodd" clip-rule="evenodd" d="M0.5 1.09961C0.5 0.823467 0.723858 0.599609 1 0.599609H15C15.2761 0.599609 15.5 0.823467 15.5 1.09961V4.86884C15.5 5.14498 15.2761 5.36884 15 5.36884H1C0.723858 5.36884 0.5 5.14498 0.5 4.86884V1.09961ZM1.5 1.59961V4.36884H14.5V1.59961H1.5Z" fill="#6B868C"/>
</svg>
