<svg width="16" height="16" viewBox="0 0 16 16" fill="none" xmlns="http://www.w3.org/2000/svg">
<path fill-rule="evenodd" clip-rule="evenodd" d="M7.98733 3.50249C7.98498 3.50356 7.9827 3.50503 7.97996 3.50832L5.10231 6.94783C4.95505 7.12384 4.70687 7.17701 4.50043 7.07676L1.53673 5.63768C1.53018 5.6345 1.52634 5.63375 1.52494 5.63354C1.5234 5.6333 1.52219 5.63332 1.52091 5.6335C1.51781 5.63395 1.51208 5.63586 1.5062 5.64074C1.50291 5.64348 1.50112 5.64584 1.50025 5.64721C1.50044 5.64824 1.50077 5.64972 1.50137 5.6517L3.57543 12.5H12.4246L14.4987 5.6517C14.4993 5.64973 14.4996 5.64824 14.4998 5.64721C14.4989 5.64584 14.4971 5.64348 14.4938 5.64074C14.488 5.63586 14.4822 5.63395 14.4791 5.6335C14.4778 5.63332 14.4766 5.6333 14.4751 5.63354C14.4737 5.63375 14.4699 5.6345 14.4633 5.63768L11.4996 7.07676C11.2932 7.17701 11.045 7.12384 10.8977 6.94783L8.02009 3.50832C8.01734 3.50503 8.01507 3.50356 8.01271 3.50249C8.00976 3.50116 8.00538 3.5 8.00002 3.5C7.99467 3.5 7.99028 3.50116 7.98733 3.50249ZM7.21298 2.86663C7.62197 2.37779 8.37807 2.37779 8.78706 2.86663L11.4141 6.00663L14.0265 4.73812C14.8087 4.35829 15.7187 5.07314 15.4557 5.94156L13.2741 13.1449C13.2103 13.3558 13.0159 13.5 12.7956 13.5H3.20443C2.98411 13.5 2.78976 13.3558 2.7259 13.1449L0.544303 5.94156C0.281297 5.07314 1.1913 4.35829 1.97353 4.73812L4.58593 6.00663L7.21298 2.86663Z" fill="#3E4749"/>
</svg>
