<svg width="16" height="16" viewBox="0 0 16 16" fill="none" xmlns="http://www.w3.org/2000/svg">
<g clip-path="url(#clip0)">
<path fill-rule="evenodd" clip-rule="evenodd" d="M8 1.48454C4.40161 1.48454 1.48454 4.40161 1.48454 8C1.48454 11.5984 4.40161 14.5155 8 14.5155C11.5984 14.5155 14.5155 11.5984 14.5155 8C14.5155 4.40161 11.5984 1.48454 8 1.48454ZM0 8C0 3.58172 3.58172 0 8 0C12.4183 0 16 3.58172 16 8C16 12.4183 12.4183 16 8 16C3.58172 16 0 12.4183 0 8Z" fill="#374B50"/>
<path fill-rule="evenodd" clip-rule="evenodd" d="M8.59382 2.78763V13.2124H7.40619V2.78763H8.59382Z" fill="#374B50"/>
<path fill-rule="evenodd" clip-rule="evenodd" d="M7.56421 3.77245C8.63685 3.69553 9.86363 3.9681 10.513 4.32521L11.0333 4.61137L10.461 5.652L9.94065 5.36585C9.52045 5.13475 8.52818 4.894 7.64916 4.95704C7.2146 4.9882 6.88224 5.08928 6.67394 5.23615C6.49751 5.36055 6.38252 5.53269 6.38252 5.8438C6.38252 6.23182 6.53491 6.46565 6.80827 6.66613C7.12184 6.89609 7.56549 7.05786 8.11538 7.24116C8.15371 7.25394 8.19271 7.26686 8.23228 7.27997C8.71336 7.43937 9.27721 7.62619 9.71973 7.91137C10.2407 8.24706 10.6603 8.76187 10.6603 9.55118C10.6603 10.2267 10.4346 10.7817 10.0098 11.1832C9.60076 11.5699 9.0627 11.7619 8.52357 11.8427C7.45427 12.0031 6.17261 11.7588 5.15906 11.3926L4.60058 11.1909L5.0041 10.0739L5.56259 10.2757C6.47399 10.6049 7.54515 10.7885 8.34744 10.6682C8.7441 10.6087 9.02153 10.4832 9.19399 10.3202C9.35072 10.172 9.47266 9.94503 9.47266 9.55118C9.47266 9.27113 9.35756 9.09084 9.07641 8.90966C8.76597 8.70961 8.33991 8.56771 7.80595 8.38988C7.78408 8.38259 7.76203 8.37525 7.7398 8.36784C7.22024 8.19465 6.59445 7.98209 6.10593 7.62383C5.57722 7.23609 5.19489 6.66782 5.19489 5.8438C5.19489 5.14245 5.50097 4.61005 5.98956 4.26554C6.4463 3.94349 7.02293 3.81127 7.56421 3.77245Z" fill="#374B50"/>
</g>
<defs>
<clipPath id="clip0">
<path d="M0 0H16V16H0V0Z" fill="white"/>
</clipPath>
</defs>
</svg>
