<svg width="16" height="16" viewBox="0 0 16 16" fill="none" xmlns="http://www.w3.org/2000/svg">
<path fill-rule="evenodd" clip-rule="evenodd" d="M16 8C16 12.4183 12.4183 16 8 16C3.58167 16 0 12.4183 0 8C0 3.58172 3.58167 0 8 0C12.4183 0 16 3.58172 16 8ZM7.83774 4.03902C8.69651 3.91819 9.57128 4.07974 10.3303 4.4993C11.0892 4.91887 11.6913 5.57374 12.0457 6.36523C12.4001 7.15672 12.4877 8.04196 12.2953 8.88757C12.1029 9.73317 11.6408 10.4933 10.9788 11.0535C10.3168 11.6137 9.49066 11.9436 8.62487 11.9934C7.75907 12.0432 6.90054 11.8103 6.17862 11.3298C5.4567 10.8493 4.9105 10.1471 4.62233 9.32918C4.54076 9.09767 4.66232 8.84387 4.89383 8.76231C5.12534 8.68074 5.37914 8.8023 5.46071 9.03381C5.68484 9.66999 6.10966 10.2161 6.67115 10.5898C7.23265 10.9636 7.9004 11.1447 8.57379 11.106C9.24718 11.0672 9.88974 10.8107 10.4046 10.375C10.9196 9.93926 11.2789 9.34802 11.4286 8.69033C11.5782 8.03264 11.5101 7.34412 11.2344 6.72851C10.9588 6.11291 10.4905 5.60357 9.9002 5.27724C9.30989 4.95091 8.62951 4.82526 7.96158 4.91924C7.29365 5.01321 6.67435 5.32171 6.197 5.79826L6.18734 5.80761L5.17189 6.76179H6.42028C6.66574 6.76179 6.86473 6.96077 6.86473 7.20623C6.86473 7.45169 6.66574 7.65068 6.42028 7.65068H4.04991C3.97156 7.65068 3.89794 7.6304 3.83401 7.59481C3.81033 7.58164 3.78762 7.56616 3.76622 7.54837C3.73066 7.51885 3.69978 7.4839 3.67485 7.44478C3.66724 7.43286 3.66027 7.42066 3.65392 7.40822C3.62251 7.34674 3.60643 7.27961 3.60551 7.21241L3.60547 7.20623V4.83586C3.60547 4.5904 3.80445 4.39142 4.04991 4.39142C4.29537 4.39142 4.49436 4.5904 4.49436 4.83586V6.1787L5.5739 5.1643C6.18697 4.55438 6.98126 4.15952 7.83774 4.03902Z" fill="#374B50"/>
</svg>
