<svg width="16" height="16" viewBox="0 0 16 16" fill="none" xmlns="http://www.w3.org/2000/svg">
<path fill-rule="evenodd" clip-rule="evenodd" d="M7.75 5.75C8.02614 5.75 8.25 5.97386 8.25 6.25V15C8.25 15.2761 8.02614 15.5 7.75 15.5C7.47386 15.5 7.25 15.2761 7.25 15V6.25C7.25 5.97386 7.47386 5.75 7.75 5.75Z" fill="#8E9899"/>
<path fill-rule="evenodd" clip-rule="evenodd" d="M13 0.5C13.2761 0.5 13.5 0.723858 13.5 1V15C13.5 15.2761 13.2761 15.5 13 15.5C12.7239 15.5 12.5 15.2761 12.5 15V1C12.5 0.723858 12.7239 0.5 13 0.5Z" fill="#8E9899"/>
<path fill-rule="evenodd" clip-rule="evenodd" d="M2.5 11C2.77614 11 3 11.2239 3 11.5V15C3 15.2761 2.77614 15.5 2.5 15.5C2.22386 15.5 2 15.2761 2 15V11.5C2 11.2239 2.22386 11 2.5 11Z" fill="#8E9899"/>
</svg>
