<svg width="16" height="16" viewBox="0 0 16 16" fill="none" xmlns="http://www.w3.org/2000/svg">
<path fill-rule="evenodd" clip-rule="evenodd" d="M11.2895 5.48989C11.5193 5.66301 11.733 5.85419 11.9289 6.061L13.1802 5.76902C12.837 5.32204 12.433 4.92047 11.9771 4.57706C10.891 3.75885 9.56888 3.31499 8.20921 3.31192L5.49663 3.22753L7.25653 1.46764C7.47968 1.24448 7.47968 0.882674 7.25653 0.659517C7.03337 0.43636 6.67156 0.43636 6.4484 0.659517L3.75466 3.35326C3.53151 3.57641 3.53151 3.93822 3.75466 4.16138L6.4484 6.85512C6.67156 7.07828 7.03337 7.07828 7.25653 6.85512C7.47968 6.63196 7.47968 6.27015 7.25653 6.047L5.58316 4.37363L8.18211 4.45449L8.1994 4.45477C9.3144 4.45571 10.3989 4.81899 11.2895 5.48989ZM10.934 13.9504C11.5363 13.5715 12.0495 13.0742 12.4453 12.4932L13.6578 12.7071C13.148 13.6027 12.4232 14.3637 11.5427 14.9177C10.3893 15.6435 9.03119 15.9748 7.67311 15.8616C6.31503 15.7485 5.03052 15.197 4.01311 14.2903C2.9957 13.3837 2.30051 12.1709 2.03228 10.8348C1.97017 10.5254 2.17065 10.2242 2.48007 10.1621C2.78948 10.0999 3.09067 10.3004 3.15279 10.6098C3.37224 11.703 3.94103 12.6953 4.77346 13.4371C5.60589 14.1789 6.65685 14.6301 7.76801 14.7227C8.87916 14.8153 9.9903 14.5443 10.934 13.9504ZM12.779 10.7266C13.0173 11.0573 13.3621 11.2226 13.8137 11.2226C14.2653 11.2226 14.6084 11.0555 14.843 10.7213C15.0813 10.387 15.2004 9.90348 15.2004 9.27059C15.2004 8.64126 15.0813 8.16304 14.843 7.83593C14.6084 7.50526 14.2653 7.33993 13.8137 7.33993C13.3621 7.33993 13.0173 7.50526 12.779 7.83593C12.5444 8.16659 12.427 8.64482 12.427 9.27059C12.427 9.90704 12.5444 10.3924 12.779 10.7266ZM14.347 10.3479C14.2368 10.5719 14.059 10.6839 13.8137 10.6839C13.5684 10.6839 13.3888 10.5719 13.275 10.3479C13.1648 10.1204 13.1097 9.76126 13.1097 9.27059C13.1097 8.78704 13.1648 8.43504 13.275 8.21459C13.3888 7.99059 13.5684 7.87859 13.8137 7.87859C14.059 7.87859 14.2368 7.99059 14.347 8.21459C14.4608 8.43504 14.5177 8.78704 14.5177 9.27059C14.5177 9.76126 14.4608 10.1204 14.347 10.3479ZM11.9545 10.6146H11.1278V7.37726H10.7278L9.67179 8.01726V8.63059L10.4451 8.16659V10.6146H9.61312V11.1746H11.9545V10.6146Z" fill="#374B50"/>
</svg>
