<svg width="16" height="16" viewBox="0 0 16 16" fill="none" xmlns="http://www.w3.org/2000/svg">
<path d="M3.88048 6.06103C4.07654 5.85396 4.29044 5.66255 4.5205 5.48924C5.41109 4.81834 6.49558 4.45506 7.61059 4.45412C7.61635 4.45411 7.62211 4.45402 7.62787 4.45384L10.227 4.37298L8.55313 6.04687C8.32997 6.27003 8.32997 6.63184 8.55313 6.855C8.77629 7.07815 9.13809 7.07815 9.36125 6.855L12.055 4.16126C12.2781 3.9381 12.2781 3.57629 12.055 3.35313L9.36125 0.659395C9.13809 0.436238 8.77629 0.436238 8.55313 0.659395C8.32997 0.882552 8.32997 1.24436 8.55313 1.46752L10.3125 3.22691L7.60077 3.31127C6.2411 3.31434 4.91899 3.7582 3.83285 4.57641C3.37675 4.92 2.97261 5.32181 2.62922 5.76906L3.88048 6.06103Z" fill="#374B50"/>
<path d="M3.36498 12.493C3.76077 13.0738 4.27389 13.5709 4.87596 13.9498C5.81968 14.5436 6.93082 14.8147 8.04197 14.7221C9.15313 14.6295 10.2041 14.1783 11.0365 13.4365C11.8689 12.6946 12.4377 11.7024 12.6572 10.6092C12.7193 10.2998 13.0205 10.0993 13.3299 10.1614C13.6393 10.2235 13.8398 10.5247 13.7777 10.8341C13.5095 12.1703 12.8143 13.383 11.7969 14.2897C10.7795 15.1964 9.49495 15.7478 8.13687 15.861C6.77879 15.9741 5.42073 15.6429 4.2673 14.9171C3.38697 14.3631 2.66225 13.6023 2.15249 12.707L3.36498 12.493Z" fill="#374B50"/>
<path d="M2.61183 10.6146H3.4385V11.1746H1.09717V10.6146H1.92917V8.16658L1.15583 8.63058V8.01725L2.21183 7.37725H2.61183V10.6146Z" fill="#374B50"/>
<path d="M5.29775 11.2226C4.8462 11.2226 4.50131 11.0572 4.26308 10.7266C4.02842 10.3924 3.91108 9.90703 3.91108 9.27058C3.91108 8.6448 4.02842 8.16658 4.26308 7.83591C4.50131 7.50525 4.8462 7.33991 5.29775 7.33991C5.74931 7.33991 6.09242 7.50525 6.32708 7.83591C6.56531 8.16302 6.68442 8.64125 6.68442 9.27058C6.68442 9.90347 6.56531 10.387 6.32708 10.7212C6.09242 11.0555 5.74931 11.2226 5.29775 11.2226ZM5.29775 10.6839C5.54308 10.6839 5.72086 10.5719 5.83108 10.3479C5.94486 10.1204 6.00175 9.76125 6.00175 9.27058C6.00175 8.78702 5.94486 8.43503 5.83108 8.21458C5.72086 7.99058 5.54308 7.87858 5.29775 7.87858C5.05242 7.87858 4.87286 7.99058 4.75908 8.21458C4.64886 8.43503 4.59375 8.78702 4.59375 9.27058C4.59375 9.76125 4.64886 10.1204 4.75908 10.3479C4.87286 10.5719 5.05242 10.6839 5.29775 10.6839Z" fill="#374B50"/>
</svg>
