<svg width="16" height="16" viewBox="0 0 16 16" fill="none" xmlns="http://www.w3.org/2000/svg">
<path fill-rule="evenodd" clip-rule="evenodd" d="M4.66671 2.5C4.44569 2.5 4.23373 2.5878 4.07745 2.74408C3.92117 2.90036 3.83337 3.11232 3.83337 3.33333V13.0284L7.70942 10.2598C7.88327 10.1356 8.11681 10.1356 8.29066 10.2598L12.1667 13.0284V3.33333C12.1667 3.11232 12.0789 2.90036 11.9226 2.74408C11.7664 2.5878 11.5544 2.5 11.3334 2.5H4.66671ZM3.37034 2.03697C3.71416 1.69315 4.18048 1.5 4.66671 1.5H11.3334C11.8196 1.5 12.2859 1.69315 12.6297 2.03697C12.9736 2.38079 13.1667 2.8471 13.1667 3.33333V14C13.1667 14.1873 13.062 14.3589 12.8955 14.4446C12.729 14.5303 12.5285 14.5157 12.3761 14.4069L8.00004 11.2811L3.62399 14.4069C3.47159 14.5157 3.27112 14.5303 3.10458 14.4446C2.93805 14.3589 2.83337 14.1873 2.83337 14V3.33333C2.83337 2.8471 3.02653 2.38079 3.37034 2.03697Z" fill="#657376"/>
</svg>
