<svg width="16" height="16" viewBox="0 0 16 16" fill="none" xmlns="http://www.w3.org/2000/svg">
<path fill-rule="evenodd" clip-rule="evenodd" d="M4.14379 0.941176C3.82484 0.941176 3.51895 1.06788 3.29341 1.29341C3.06788 1.51895 2.94118 1.82484 2.94118 2.14379V14.615L8.05327 10.9635C8.2169 10.8466 8.4367 10.8466 8.60032 10.9635L13.7124 14.615V2.14379C13.7124 1.82484 13.5857 1.51895 13.3602 1.29341C13.1346 1.06788 12.8288 0.941176 12.5098 0.941176H4.14379ZM2.6279 0.627902C3.02994 0.225863 3.57522 0 4.14379 0H12.5098C13.0784 0 13.6237 0.225863 14.0257 0.627902C14.4277 1.02994 14.6536 1.57522 14.6536 2.14379V15.5294C14.6536 15.7057 14.5551 15.8672 14.3983 15.9478C14.2416 16.0285 14.0529 16.0148 13.9095 15.9123L8.3268 11.9247L2.74411 15.9123C2.60067 16.0148 2.41199 16.0285 2.25526 15.9478C2.09852 15.8672 2 15.7057 2 15.5294V2.14379C2 1.57522 2.22586 1.02994 2.6279 0.627902Z" fill="#202324"/>
</svg>
