<svg width="16" height="16" viewBox="0 0 16 16" fill="none" xmlns="http://www.w3.org/2000/svg">
<path fill-rule="evenodd" clip-rule="evenodd" d="M2.66667 7.58333C2.89679 7.58333 3.08333 7.76988 3.08333 7.99999V13.3333C3.08333 13.5764 3.17991 13.8096 3.35182 13.9815C3.52373 14.1534 3.75689 14.25 4 14.25H12C12.2431 14.25 12.4763 14.1534 12.6482 13.9815C12.8201 13.8096 12.9167 13.5764 12.9167 13.3333V7.99999C12.9167 7.76988 13.1032 7.58333 13.3333 7.58333C13.5635 7.58333 13.75 7.76988 13.75 7.99999V13.3333C13.75 13.7975 13.5656 14.2426 13.2374 14.5708C12.9092 14.899 12.4641 15.0833 12 15.0833H4C3.53587 15.0833 3.09075 14.899 2.76256 14.5708C2.43437 14.2426 2.25 13.7975 2.25 13.3333V7.99999C2.25 7.76988 2.43655 7.58333 2.66667 7.58333Z" fill="#3E4749"/>
<path fill-rule="evenodd" clip-rule="evenodd" d="M7.70533 1.03871C7.86805 0.875992 8.13187 0.875992 8.29459 1.03871L10.9613 3.70538C11.124 3.8681 11.124 4.13191 10.9613 4.29463C10.7985 4.45735 10.5347 4.45735 10.372 4.29463L7.99996 1.92259L5.62792 4.29463C5.4652 4.45735 5.20138 4.45735 5.03866 4.29463C4.87595 4.13191 4.87595 3.8681 5.03866 3.70538L7.70533 1.03871Z" fill="#3E4749"/>
<path fill-rule="evenodd" clip-rule="evenodd" d="M7.99998 0.916672C8.2301 0.916672 8.41665 1.10322 8.41665 1.33334V10C8.41665 10.2301 8.2301 10.4167 7.99998 10.4167C7.76986 10.4167 7.58331 10.2301 7.58331 10V1.33334C7.58331 1.10322 7.76986 0.916672 7.99998 0.916672Z" fill="#3E4749"/>
</svg>
