<svg width="16" height="16" viewBox="0 0 16 16" fill="none" xmlns="http://www.w3.org/2000/svg">
<path fill-rule="evenodd" clip-rule="evenodd" d="M14.2223 1.77778C14.2223 1.4788 14.0509 1.20629 13.7814 1.07677C13.5119 0.947256 13.1921 0.98367 12.9586 1.17044L5.18084 7.39266C4.99634 7.54026 4.88894 7.76372 4.88894 8C4.88894 8.23628 4.99634 8.45974 5.18084 8.60734L12.9586 14.8296C13.1921 15.0163 13.5119 15.0527 13.7814 14.9232C14.0509 14.7937 14.2223 14.5212 14.2223 14.2222V1.77778ZM12.6667 12.604L6.91177 8L12.6667 3.39605V12.604Z" fill="#374B50"/>
<path d="M3.33339 2.55555C3.33339 2.126 2.98516 1.77778 2.55561 1.77778C2.12605 1.77778 1.77783 2.126 1.77783 2.55555V13.4444C1.77783 13.874 2.12605 14.2222 2.55561 14.2222C2.98516 14.2222 3.33339 13.874 3.33339 13.4444V2.55555Z" fill="#374B50"/>
</svg>
