<svg width="16" height="16" viewBox="0 0 16 16" fill="none" xmlns="http://www.w3.org/2000/svg">
<path fill-rule="evenodd" clip-rule="evenodd" d="M12.3596 2.1301C12.5378 1.98754 12.782 1.95974 12.9877 2.0586C13.1934 2.15746 13.3242 2.36547 13.3242 2.59369V13.4063C13.3242 13.6345 13.1934 13.8425 12.9877 13.9414C12.782 14.0403 12.5378 14.0125 12.3596 13.8699L5.60175 8.46359C5.46092 8.35092 5.37894 8.18035 5.37894 8C5.37894 7.81965 5.46092 7.64908 5.60175 7.53641L12.3596 2.1301ZM12.1368 3.99975C12.1368 3.96819 12.1187 3.93942 12.0903 3.92575C12.0618 3.91207 12.0281 3.91592 12.0034 3.93563L7.00312 7.93588C6.98364 7.95147 6.9723 7.97506 6.9723 8C6.9723 8.02494 6.98364 8.04853 7.00312 8.06412L12.0034 12.0644C12.0281 12.0841 12.0618 12.0879 12.0903 12.0743C12.1187 12.0606 12.1368 12.0318 12.1368 12.0002V3.99975Z" fill="#374B50"/>
<path d="M2.67578 3.26947C2.67578 2.94159 2.94158 2.67579 3.26946 2.67579C3.59734 2.67579 3.86314 2.94159 3.86314 3.26947V12.7305C3.86314 13.0584 3.59734 13.3242 3.26946 13.3242C2.94158 13.3242 2.67578 13.0584 2.67578 12.7305V3.26947Z" fill="#374B50"/>
</svg>
