<svg width="16" height="16" viewBox="0 0 16 16" fill="none" xmlns="http://www.w3.org/2000/svg">
<path fill-rule="evenodd" clip-rule="evenodd" d="M7.99999 5.13931C6.42013 5.13931 5.13939 6.42005 5.13939 7.99993C5.13939 9.57981 6.42013 10.8606 7.99999 10.8606C9.57986 10.8606 10.8606 9.57981 10.8606 7.99993C10.8606 6.42005 9.57986 5.13931 7.99999 5.13931ZM4.07273 7.99993C4.07273 5.83096 5.83102 4.07265 7.99999 4.07265C10.169 4.07265 11.9273 5.83096 11.9273 7.99993C11.9273 10.1689 10.169 11.9272 7.99999 11.9272C5.83102 11.9272 4.07273 10.1689 4.07273 7.99993Z" fill="#202324"/>
<path fill-rule="evenodd" clip-rule="evenodd" d="M7.99997 0C8.29453 0 8.53331 0.238781 8.53331 0.533332V1.89091C8.53331 2.18546 8.29453 2.42425 7.99997 2.42425C7.70542 2.42425 7.46664 2.18546 7.46664 1.89091V0.533332C7.46664 0.238781 7.70542 0 7.99997 0Z" fill="#202324"/>
<path fill-rule="evenodd" clip-rule="evenodd" d="M7.99997 13.5758C8.29453 13.5758 8.53331 13.8145 8.53331 14.1091V15.4667C8.53331 15.7612 8.29453 16 7.99997 16C7.70542 16 7.46664 15.7612 7.46664 15.4667V14.1091C7.46664 13.8145 7.70542 13.5758 7.99997 13.5758Z" fill="#202324"/>
<path fill-rule="evenodd" clip-rule="evenodd" d="M2.34191 2.34162C2.55019 2.13334 2.88787 2.13334 3.09615 2.34162L4.06003 3.30551C4.26831 3.51378 4.26831 3.85147 4.06003 4.05975C3.85175 4.26803 3.51406 4.26803 3.30578 4.05975L2.34191 3.09587C2.13363 2.88759 2.13363 2.5499 2.34191 2.34162Z" fill="#202324"/>
<path fill-rule="evenodd" clip-rule="evenodd" d="M11.9399 11.94C12.1482 11.7318 12.4859 11.7318 12.6942 11.94L13.6581 12.9039C13.8663 13.1122 13.8663 13.4499 13.6581 13.6582C13.4498 13.8664 13.1121 13.8664 12.9038 13.6582L11.9399 12.6943C11.7317 12.486 11.7317 12.1483 11.9399 11.94Z" fill="#202324"/>
<path fill-rule="evenodd" clip-rule="evenodd" d="M0 7.99994C0 7.70539 0.238781 7.46661 0.533332 7.46661H1.89091C2.18546 7.46661 2.42424 7.70539 2.42424 7.99994C2.42424 8.29449 2.18546 8.53328 1.89091 8.53328H0.533332C0.238781 8.53328 0 8.29449 0 7.99994Z" fill="#202324"/>
<path fill-rule="evenodd" clip-rule="evenodd" d="M13.5757 7.99998C13.5757 7.70543 13.8145 7.46665 14.1091 7.46665H15.4666C15.7612 7.46665 16 7.70543 16 7.99998C16 8.29454 15.7612 8.53332 15.4666 8.53332H14.1091C13.8145 8.53332 13.5757 8.29454 13.5757 7.99998Z" fill="#202324"/>
<path fill-rule="evenodd" clip-rule="evenodd" d="M4.06003 11.94C4.26831 12.1483 4.26831 12.486 4.06003 12.6943L3.09615 13.6582C2.88787 13.8664 2.55019 13.8664 2.34191 13.6582C2.13363 13.4499 2.13363 13.1122 2.34191 12.9039L3.30578 11.94C3.51406 11.7318 3.85175 11.7318 4.06003 11.94Z" fill="#202324"/>
<path fill-rule="evenodd" clip-rule="evenodd" d="M13.6581 2.34162C13.8663 2.5499 13.8663 2.88759 13.6581 3.09587L12.6942 4.05975C12.4859 4.26803 12.1482 4.26803 11.9399 4.05975C11.7317 3.85147 11.7317 3.51378 11.9399 3.30551L12.9038 2.34162C13.1121 2.13334 13.4498 2.13334 13.6581 2.34162Z" fill="#202324"/>
</svg>
