<svg width="16" height="16" viewBox="0 0 16 16" fill="none" xmlns="http://www.w3.org/2000/svg">
<path fill-rule="evenodd" clip-rule="evenodd" d="M7.99999 2.5C8.27614 2.5 8.49999 2.72386 8.49999 3V4.33333C8.49999 4.60948 8.27614 4.83333 7.99999 4.83333C7.72385 4.83333 7.49999 4.60948 7.49999 4.33333V3C7.49999 2.72386 7.72385 2.5 7.99999 2.5ZM2.45974 4.79311C2.655 4.59785 2.97158 4.59785 3.16685 4.79311L4.11351 5.73978C4.30877 5.93504 4.30877 6.25162 4.11351 6.44688C3.91825 6.64215 3.60167 6.64215 3.40641 6.44688L2.45974 5.50022C2.26448 5.30496 2.26448 4.98837 2.45974 4.79311ZM13.5402 4.79311C13.7355 4.98837 13.7355 5.30495 13.5402 5.50022L12.5935 6.44688C12.3983 6.64215 12.0817 6.64215 11.8864 6.44688C11.6912 6.25162 11.6912 5.93504 11.8864 5.73978L12.8331 4.79311C13.0284 4.59785 13.3449 4.59785 13.5402 4.79311ZM5.28944 7.62275C6.00833 6.90386 6.98336 6.5 8.00002 6.5C9.01668 6.5 9.99171 6.90386 10.7106 7.62275C11.4295 8.34164 11.8334 9.31667 11.8334 10.3333C11.8334 10.6095 11.6095 10.8333 11.3334 10.8333C11.0572 10.8333 10.8334 10.6095 10.8334 10.3333C10.8334 9.58188 10.5348 8.86121 10.0035 8.32986C9.47214 7.79851 8.75147 7.5 8.00002 7.5C7.24857 7.5 6.5279 7.79851 5.99655 8.32986C5.4652 8.86121 5.16669 9.58188 5.16669 10.3333C5.16669 10.6095 4.94283 10.8333 4.66669 10.8333C4.39054 10.8333 4.16669 10.6095 4.16669 10.3333C4.16669 9.31667 4.57055 8.34164 5.28944 7.62275ZM0.166687 10.3333C0.166687 10.0572 0.390545 9.83333 0.666687 9.83333H2.00002C2.27616 9.83333 2.50002 10.0572 2.50002 10.3333C2.50002 10.6095 2.27616 10.8333 2.00002 10.8333H0.666687C0.390545 10.8333 0.166687 10.6095 0.166687 10.3333ZM13.5 10.3333C13.5 10.0572 13.7239 9.83333 14 9.83333H15.3333C15.6095 9.83333 15.8333 10.0572 15.8333 10.3333C15.8333 10.6095 15.6095 10.8333 15.3333 10.8333H14C13.7239 10.8333 13.5 10.6095 13.5 10.3333ZM0.166687 13C0.166687 12.7239 0.390545 12.5 0.666687 12.5H15.3334C15.6095 12.5 15.8334 12.7239 15.8334 13C15.8334 13.2761 15.6095 13.5 15.3334 13.5H0.666687C0.390545 13.5 0.166687 13.2761 0.166687 13Z" fill="#3E4749"/>
</svg>
