<svg width="16" height="16" viewBox="0 0 16 16" fill="none" xmlns="http://www.w3.org/2000/svg">
<path fill-rule="evenodd" clip-rule="evenodd" d="M5.28944 5.12276C6.00833 4.40387 6.98336 4 8.00002 4C9.01668 4 9.99171 4.40387 10.7106 5.12276C11.4295 5.84165 11.8334 6.81667 11.8334 7.83333C11.8334 8.10948 11.6095 8.33333 11.3334 8.33333C11.0572 8.33333 10.8334 8.10948 10.8334 7.83333C10.8334 7.08189 10.5348 6.36122 10.0035 5.82986C9.47214 5.29851 8.75147 5 8.00002 5C7.24857 5 6.5279 5.29851 5.99655 5.82986C5.4652 6.36122 5.16669 7.08189 5.16669 7.83333C5.16669 8.10948 4.94283 8.33333 4.66669 8.33333C4.39054 8.33333 4.16669 8.10948 4.16669 7.83333C4.16669 6.81667 4.57055 5.84165 5.28944 5.12276ZM0.166687 10.5C0.166687 10.2239 0.390545 10 0.666687 10H15.3334C15.6095 10 15.8334 10.2239 15.8334 10.5C15.8334 10.7761 15.6095 11 15.3334 11H0.666687C0.390545 11 0.166687 10.7761 0.166687 10.5Z" fill="#3E4749"/>
</svg>
