<svg width="16" height="16" viewBox="0 0 16 16" fill="none" xmlns="http://www.w3.org/2000/svg">
<path fill-rule="evenodd" clip-rule="evenodd" d="M8.1665 6C8.1665 5.72386 8.39036 5.5 8.6665 5.5H12.9998C13.8283 5.5 14.4998 6.17157 14.4998 7V13C14.4998 13.8284 13.8283 14.5 12.9998 14.5H8.6665C8.39036 14.5 8.1665 14.2761 8.1665 14V6ZM9.1665 6.5V13.5H12.9998C13.276 13.5 13.4998 13.2761 13.4998 13V7C13.4998 6.72386 13.276 6.5 12.9998 6.5H9.1665Z" fill="#666F71"/>
<path fill-rule="evenodd" clip-rule="evenodd" d="M1.5 3C1.5 2.17157 2.17157 1.5 3 1.5H7.66667C8.4951 1.5 9.16667 2.17157 9.16667 3V14C9.16667 14.2761 8.94281 14.5 8.66667 14.5H3C2.17157 14.5 1.5 13.8284 1.5 13V3ZM3 2.5C2.72386 2.5 2.5 2.72386 2.5 3V13C2.5 13.2761 2.72386 13.5 3 13.5H8.16667V3C8.16667 2.72386 7.94281 2.5 7.66667 2.5H3Z" fill="#666F71"/>
<path fill-rule="evenodd" clip-rule="evenodd" d="M10.1665 9C10.1665 8.72386 10.3904 8.5 10.6665 8.5H11.9998C12.276 8.5 12.4998 8.72386 12.4998 9C12.4998 9.27614 12.276 9.5 11.9998 9.5H10.6665C10.3904 9.5 10.1665 9.27614 10.1665 9Z" fill="#666F71"/>
<path fill-rule="evenodd" clip-rule="evenodd" d="M10.1665 11C10.1665 10.7239 10.3904 10.5 10.6665 10.5H11.9998C12.276 10.5 12.4998 10.7239 12.4998 11C12.4998 11.2761 12.276 11.5 11.9998 11.5H10.6665C10.3904 11.5 10.1665 11.2761 10.1665 11Z" fill="#666F71"/>
<path fill-rule="evenodd" clip-rule="evenodd" d="M3.5 7C3.5 6.72386 3.72386 6.5 4 6.5H6.66667C6.94281 6.5 7.16667 6.72386 7.16667 7C7.16667 7.27614 6.94281 7.5 6.66667 7.5H4C3.72386 7.5 3.5 7.27614 3.5 7Z" fill="#666F71"/>
<path fill-rule="evenodd" clip-rule="evenodd" d="M3.5 5C3.5 4.72386 3.72386 4.5 4 4.5H6.66667C6.94281 4.5 7.16667 4.72386 7.16667 5C7.16667 5.27614 6.94281 5.5 6.66667 5.5H4C3.72386 5.5 3.5 5.27614 3.5 5Z" fill="#666F71"/>
<path fill-rule="evenodd" clip-rule="evenodd" d="M3.5 9C3.5 8.72386 3.72386 8.5 4 8.5H6.66667C6.94281 8.5 7.16667 8.72386 7.16667 9C7.16667 9.27614 6.94281 9.5 6.66667 9.5H4C3.72386 9.5 3.5 9.27614 3.5 9Z" fill="#666F71"/>
<path fill-rule="evenodd" clip-rule="evenodd" d="M3.5 11C3.5 10.7239 3.72386 10.5 4 10.5H6.66667C6.94281 10.5 7.16667 10.7239 7.16667 11C7.16667 11.2761 6.94281 11.5 6.66667 11.5H4C3.72386 11.5 3.5 11.2761 3.5 11Z" fill="#666F71"/>
</svg>
