<svg width="16" height="16" viewBox="0 0 16 16" fill="none" xmlns="http://www.w3.org/2000/svg">
<path fill-rule="evenodd" clip-rule="evenodd" d="M5.1637 15.164C4.88904 15.4387 4.44374 15.4387 4.16908 15.164C3.89443 14.8893 3.89443 14.444 4.16908 14.1694L6.30178 12.0367H2.66639C1.54159 12.0367 0.629761 11.1249 0.629761 10.0001V2.66673C0.629761 1.54193 1.54159 0.630098 2.66639 0.630098H13.3331C14.4579 0.630098 15.3697 1.54193 15.3697 2.66673V10.0001C15.3697 11.1249 14.4579 12.0367 13.3331 12.0367H9.69766L11.8304 14.1694C12.105 14.444 12.105 14.8893 11.8304 15.164C11.5557 15.4387 11.1104 15.4387 10.8357 15.164L7.99972 12.328L5.1637 15.164ZM7.99305 10.6301C7.9975 10.6301 8.00195 10.6301 8.0064 10.6301H13.3331C13.681 10.6301 13.9631 10.348 13.9631 10.0001V2.66673C13.9631 2.31877 13.681 2.03669 13.3331 2.03669H2.66639C2.31843 2.03669 2.03635 2.31877 2.03635 2.66673V10.0001C2.03635 10.348 2.31843 10.6301 2.66639 10.6301H7.99305Z" fill="#A6C8D0"/>
</svg>
