<svg width="16" height="16" viewBox="0 0 16 16" fill="none" xmlns="http://www.w3.org/2000/svg">
<path fill-rule="evenodd" clip-rule="evenodd" d="M7.99981 2.25C7.99981 2.25 7.99989 2.25 7.99989 2.66667L7.99987 3.08333L7.94902 3.08341C7.91547 3.08348 7.86599 3.08363 7.80253 3.08393C7.67559 3.08452 7.49279 3.08572 7.26977 3.0881C6.82356 3.09287 6.21718 3.10242 5.5756 3.12148C4.93336 3.14057 4.25921 3.1691 3.67645 3.2116C3.0844 3.25479 2.62136 3.3103 2.37711 3.37508C2.13497 3.44413 1.91521 3.57562 1.73987 3.75638C1.56688 3.93472 1.44315 4.15481 1.38067 4.39512C1.17709 5.52905 1.07753 6.67921 1.08322 7.83127L1.08324 7.83595C1.07597 8.99436 1.17509 10.151 1.37941 11.2912C1.44838 11.5215 1.57407 11.7309 1.74509 11.9002C1.92042 12.0737 2.13749 12.1992 2.37536 12.2645C2.61915 12.3294 3.08298 12.3851 3.67645 12.4284C4.25921 12.4709 4.93336 12.4994 5.5756 12.5185C6.21718 12.5376 6.82356 12.5471 7.26977 12.5519C7.49279 12.5543 7.67559 12.5555 7.80253 12.5561C7.86599 12.5564 7.91547 12.5565 7.94902 12.5566L7.99987 12.5567L7.99989 12.9733C7.99989 13.39 7.99981 13.39 7.99981 13.39L7.94718 13.3899C7.91299 13.3898 7.86281 13.3897 7.79862 13.3894C7.67024 13.3888 7.48575 13.3876 7.26085 13.3852C6.81122 13.3804 6.19928 13.3708 5.55085 13.3515C4.90309 13.3322 4.21558 13.3033 3.61583 13.2595C3.02774 13.2166 2.48876 13.1574 2.15891 13.0692L2.15659 13.0686C1.78002 12.9655 1.43638 12.7671 1.15889 12.4925C0.881398 12.2178 0.679428 11.8763 0.572493 11.5008C0.568727 11.4876 0.565618 11.4742 0.563177 11.4606C0.347269 10.2637 0.242394 9.04931 0.249887 7.83305C0.244065 6.62589 0.348932 5.42074 0.563174 4.23272C0.564822 4.22358 0.566774 4.2145 0.569028 4.2055C0.666025 3.81797 0.86357 3.46291 1.14171 3.17616C1.41985 2.88942 1.76874 2.68116 2.15313 2.5724L2.1589 2.57077C2.48875 2.48255 3.02774 2.42337 3.61583 2.38048C4.21558 2.33673 4.90309 2.30777 5.55085 2.28852C6.19928 2.26925 6.81122 2.25963 7.26085 2.25482C7.48575 2.25241 7.67024 2.25121 7.79862 2.2506C7.86281 2.2503 7.91299 2.25015 7.94718 2.25008L7.99981 2.25ZM13.6227 12.2649C13.3784 12.3297 12.9154 12.3852 12.3233 12.4284C11.7406 12.4709 11.0664 12.4994 10.4242 12.5185C9.78261 12.5376 9.17623 12.5471 8.73002 12.5519C8.507 12.5543 8.3242 12.5555 8.19726 12.5561C8.1338 12.5564 8.08431 12.5565 8.05076 12.5566L7.99987 12.5567L7.99989 12.9733C7.99989 13.39 7.99981 13.39 7.99981 13.39L8.0526 13.3899C8.0868 13.3898 8.13698 13.3897 8.20117 13.3894C8.32955 13.3888 8.51404 13.3876 8.73893 13.3852C9.18856 13.3804 9.80051 13.3708 10.4489 13.3515C11.0967 13.3322 11.7842 13.3033 12.384 13.2595C12.9721 13.2166 13.511 13.1574 13.8409 13.0692L13.8467 13.0676C14.2311 12.9588 14.5799 12.7506 14.8581 12.4638C15.1362 12.1771 15.3338 11.822 15.4308 11.4345C15.433 11.4255 15.435 11.4164 15.4366 11.4073C15.6492 10.2281 15.7541 9.03208 15.7499 7.83394C15.7574 6.61757 15.6525 5.40311 15.4366 4.20604L15.0266 4.28L15.4308 4.17883C15.3338 3.79131 15.1362 3.43624 14.8581 3.1495C14.5799 2.86275 14.2311 2.65449 13.8467 2.54574C13.8418 2.54437 13.837 2.54309 13.8321 2.54189C13.5055 2.46215 12.9696 2.40822 12.3813 2.36905C11.7823 2.32915 11.0954 2.30272 10.4479 2.28515C9.79973 2.26757 9.18803 2.25879 8.73855 2.25439C8.51373 2.2522 8.32932 2.2511 8.201 2.25055C8.13684 2.25028 8.08669 2.25014 8.05252 2.25007L7.99981 2.25C7.99981 2.25 7.99989 2.25 7.99989 2.66667L7.99987 3.08333L8.05084 3.0834L8.19743 3.08388C8.32443 3.08442 8.50731 3.08551 8.73041 3.08769C9.17676 3.09205 9.78339 3.10077 10.4253 3.11818C11.0677 3.13561 11.7425 3.16168 12.326 3.20054C12.9144 3.23972 13.3784 3.29017 13.627 3.34966C13.8674 3.41904 14.0856 3.55003 14.2599 3.72971C14.4329 3.90805 14.5566 4.12815 14.6191 4.36846C14.8243 5.51096 14.9239 6.66994 14.9166 7.83072L14.9166 7.83483C14.9207 8.97818 14.8211 10.1195 14.6191 11.2449C14.5566 11.4852 14.4329 11.7053 14.2599 11.8836C14.0846 12.0644 13.8648 12.1959 13.6227 12.2649Z" fill="#202324"/>
<path fill-rule="evenodd" clip-rule="evenodd" d="M6.29039 5.29316C6.41865 5.21855 6.5769 5.21778 6.70588 5.29113L10.5392 7.47113C10.6695 7.5452 10.7499 7.68349 10.7499 7.83332C10.7499 7.98315 10.6695 8.12145 10.5392 8.19552L6.70588 10.3755C6.5769 10.4489 6.41865 10.4481 6.29039 10.3735C6.16214 10.2989 6.08323 10.1617 6.08323 10.0133V5.65332C6.08323 5.50495 6.16214 5.36777 6.29039 5.29316ZM6.91657 6.36961V9.29703L9.49037 7.83332L6.91657 6.36961Z" fill="#202324"/>
</svg>
